<svg width="27" height="22" viewBox="0 0 27 22" fill="none" xmlns="http://www.w3.org/2000/svg"><path d="M6.152 16.586l-.003.002-.831.832V1.907a1.107 1.107 0 1 0-2.215 0V17.42l-.831-.832-.003-.002a1.107 1.107 0 0 0-1.565 1.566l.002.002 2.722 2.722a1.107 1.107 0 0 0 1.565 0l2.722-2.722.003-.002a1.107 1.107 0 0 0-1.566-1.566zM11.469 14.85h10.887a1.107 1.107 0 1 0 0-2.215H11.469a1.107 1.107 0 1 0 0 2.214zM25.077 18.078H11.47a1.108 1.108 0 0 0 0 2.215h13.608a1.107 1.107 0 1 0 0-2.215zM11.469 9.406h8.165a1.107 1.107 0 0 0 0-2.214h-8.165a1.107 1.107 0 0 0 0 2.214zM11.469 3.963h4.536a1.107 1.107 0 0 0 0-2.215h-4.536a1.107 1.107 0 0 0 0 2.215z" fill="#C3C3C3" stroke="#C3C3C3" stroke-width=".4"/></svg>