<svg width="45" height="45" viewBox="0 0 45 45" fill="none" xmlns="http://www.w3.org/2000/svg"><path d="M30 5.156c0 4.056-5.288 9.096-7.922 11.209a2.323 2.323 0 0 1-2.906 0C16.538 14.25 11.25 9.212 11.25 5.156A4.939 4.939 0 0 1 15.938 0a4.939 4.939 0 0 1 4.687 5.156A4.939 4.939 0 0 1 25.313 0 4.939 4.939 0 0 1 30 5.156zm13.759 18L29.32 38.923A18.75 18.75 0 0 1 15.491 45H7.5A7.5 7.5 0 0 1 0 37.5v-9.375a7.5 7.5 0 0 1 7.5-7.5h14.6a4.159 4.159 0 0 1 4.058 5.034 4.275 4.275 0 0 1-3.637 3.248L14.715 30a1.875 1.875 0 0 0 .53 3.712l7.973-1.125A7.939 7.939 0 0 0 30 24.774a7.647 7.647 0 0 0-.122-1.196l6.641-7.007a4.886 4.886 0 0 1 8.468 3.068 4.905 4.905 0 0 1-1.228 3.508v.01z" fill="#fff"/></svg>