<svg width="28" height="28" viewBox="0 0 28 28" fill="none" xmlns="http://www.w3.org/2000/svg"><path d="M10.183 3.817a3.817 3.817 0 1 0 7.634 0 3.817 3.817 0 0 0-7.634 0zm14-3.817a3.817 3.817 0 1 0 0 7.634 3.817 3.817 0 0 0 0-7.634zM0 3.817a3.817 3.817 0 1 0 7.634 0 3.817 3.817 0 0 0-7.634 0zM10.183 14a3.817 3.817 0 1 0 7.634 0 3.817 3.817 0 0 0-7.634 0zm10.183 0A3.817 3.817 0 1 0 28 14a3.817 3.817 0 0 0-7.634 0zM0 14a3.817 3.817 0 1 0 7.634 0A3.817 3.817 0 0 0 0 14zm10.183 10.183a3.817 3.817 0 1 0 7.634 0 3.817 3.817 0 0 0-7.634 0zm10.183 0a3.817 3.817 0 1 0 7.634 0 3.817 3.817 0 0 0-7.634 0zM0 24.183a3.817 3.817 0 1 0 7.634 0 3.817 3.817 0 0 0-7.634 0z" fill="#fff"/></svg>