<svg width="21" height="20" viewBox="0 0 21 20" fill="none" xmlns="http://www.w3.org/2000/svg"><path d="M9.363 1.75a3.046 3.046 0 0 0-5.513 0H1.312a1.313 1.313 0 0 0 0 2.625h2.534a3.046 3.046 0 0 0 5.512 0h10.33a1.312 1.312 0 1 0 0-2.625H9.363zM14.398 6.891a3.055 3.055 0 0 0-2.757 1.75H1.312a1.313 1.313 0 0 0 0 2.625h10.325a3.046 3.046 0 0 0 5.513 0h2.538a1.312 1.312 0 1 0 0-2.625h-2.534a3.056 3.056 0 0 0-2.756-1.75zM6.602 13.782a3.056 3.056 0 0 0-2.756 1.75H1.312a1.312 1.312 0 1 0 0 2.625h2.534a3.046 3.046 0 0 0 5.512 0h10.33a1.313 1.313 0 0 0 0-2.625H9.363a3.056 3.056 0 0 0-2.761-1.75z" fill="#787878"/></svg>