<svg width="25" height="25" viewBox="0 0 25 25" fill="none" xmlns="http://www.w3.org/2000/svg"><g clip-path="url(#a)"><path d="M13.542 1.042A1.042 1.042 0 0 1 14.583 0 10.428 10.428 0 0 1 25 10.417a1.042 1.042 0 0 1-2.083 0 8.342 8.342 0 0 0-8.334-8.333 1.042 1.042 0 0 1-1.041-1.042zm1.041 5.208a4.167 4.167 0 0 1 4.167 4.167 1.041 1.041 0 1 0 2.083 0 6.257 6.257 0 0 0-6.25-6.25 1.042 1.042 0 0 0 0 2.083zm9.472 11.187a3.23 3.23 0 0 1 0 4.56l-.948 1.093c-8.53 8.168-29.291-12.588-21.25-21.146L3.055.902a3.21 3.21 0 0 1 4.508.042c.032.032 1.962 2.54 1.962 2.54a3.23 3.23 0 0 1-.007 4.46L8.312 9.46a13.313 13.313 0 0 0 7.22 7.234l1.525-1.214a3.229 3.229 0 0 1 4.46-.006s2.506 1.93 2.538 1.962zm-1.433 1.514s-2.493-1.918-2.525-1.95a1.146 1.146 0 0 0-1.614 0c-.028.03-2.129 1.703-2.129 1.703a1.042 1.042 0 0 1-1.02.159 15.634 15.634 0 0 1-9.188-9.175 1.042 1.042 0 0 1 .15-1.042S7.972 6.544 8 6.516a1.146 1.146 0 0 0 0-1.613c-.032-.03-1.95-2.526-1.95-2.526a1.146 1.146 0 0 0-1.573.04L3.278 3.46c-5.877 7.066 12.114 24.059 18.306 18.207l.95-1.094a1.168 1.168 0 0 0 .088-1.622z" fill="#519EF5"/></g><defs><clipPath id="a"><path fill="#fff" d="M0 0h25v25H0z"/></clipPath></defs></svg>