<svg width="32" height="32" viewBox="0 0 32 32" fill="none" xmlns="http://www.w3.org/2000/svg"><g clip-path="url(#a)"><path d="M32 16a1.333 1.333 0 0 1-2.667 0A13.348 13.348 0 0 0 16 2.667 1.333 1.333 0 1 1 16 0a16.017 16.017 0 0 1 16 16zm-10.667 1.333a1.333 1.333 0 1 0 0-2.666h-3.036a2.664 2.664 0 0 0-.964-.964v-4.37a1.333 1.333 0 1 0-2.666 0v4.37a2.658 2.658 0 1 0 3.63 3.63h3.036zM2.436 9.045a1.333 1.333 0 1 0 0 2.667 1.333 1.333 0 0 0 0-2.667zM2.666 16A1.334 1.334 0 1 0 0 16a1.334 1.334 0 0 0 2.667 0zM16 29.333a1.334 1.334 0 1 0 0 2.668 1.334 1.334 0 0 0 0-2.668zM5.628 4.276a1.333 1.333 0 1 0 0 2.667 1.333 1.333 0 0 0 0-2.667zm4.744-3.155a1.333 1.333 0 1 0 0 2.667 1.333 1.333 0 0 0 0-2.667zM2.436 20.288a1.333 1.333 0 1 0 0 2.667 1.333 1.333 0 0 0 0-2.667zm3.192 4.77a1.333 1.333 0 1 0 0 2.666 1.333 1.333 0 0 0 0-2.667zm4.744 3.154a1.333 1.333 0 1 0 0 2.667 1.333 1.333 0 0 0 0-2.667zm19.192-7.924a1.334 1.334 0 1 0 0 2.667 1.334 1.334 0 0 0 0-2.667zm-3.192 4.77a1.334 1.334 0 1 0 0 2.667 1.334 1.334 0 0 0 0-2.668zm-4.744 3.154a1.334 1.334 0 1 0 0 2.667 1.334 1.334 0 0 0 0-2.667z" fill="#519EF5"/></g><defs><clipPath id="a"><path fill="#fff" d="M0 0h32v32H0z"/></clipPath></defs></svg>