<svg width="30" height="30" viewBox="0 0 30 30" fill="none" xmlns="http://www.w3.org/2000/svg"><circle cx="15" cy="15" r="12" transform="rotate(-180 15 15)" fill="#fff" filter="url(#a)"/><circle cx="15" cy="15" r="10" transform="rotate(-180 15 15)" fill="#519EF5"/><path d="M17.226 10.13l-5.087 5.038a.466.466 0 0 0 0 .662l5.087 5.04a.448.448 0 0 0 .32.13.46.46 0 0 0 .32-.13.445.445 0 0 0 0-.633l-4.783-4.738 4.783-4.737a.445.445 0 0 0-.32-.762.46.46 0 0 0-.32.13z" fill="#fff"/><defs><filter id="a" x="0" y="0" width="30" height="30" filterUnits="userSpaceOnUse" color-interpolation-filters="sRGB"><feFlood flood-opacity="0" result="BackgroundImageFix"/><feColorMatrix in="SourceAlpha" values="0 0 0 0 0 0 0 0 0 0 0 0 0 0 0 0 0 0 127 0" result="hardAlpha"/><feOffset/><feGaussianBlur stdDeviation="1.5"/><feComposite in2="hardAlpha" operator="out"/><feColorMatrix values="0 0 0 0 0 0 0 0 0 0 0 0 0 0 0 0 0 0 0.25 0"/><feBlend in2="BackgroundImageFix" result="effect1_dropShadow_114_532"/><feBlend in="SourceGraphic" in2="effect1_dropShadow_114_532" result="shape"/></filter></defs></svg>