<svg width="75" height="53" viewBox="0 0 75 53" fill="none" xmlns="http://www.w3.org/2000/svg">
<path d="M57.2726 36.3326C57.0096 36.3326 56.7515 36.2352 56.5518 36.0307L49.2661 28.745C48.8667 28.3456 48.8667 27.6979 49.2661 27.2985C49.6654 26.8992 50.3131 26.8992 50.7125 27.2985L57.9982 34.5842C58.3976 34.9836 58.3976 35.6313 57.9982 36.0307C57.7985 36.2304 57.5355 36.3326 57.2726 36.3326Z" fill="white"/>
<path d="M48.4625 52.7937C44.9122 52.7937 41.469 52.0973 38.2255 50.7288C35.094 49.4041 32.284 47.5096 29.8684 45.094C27.4528 42.6785 25.5583 39.8684 24.2336 36.7369C22.8603 33.4934 22.1687 30.0502 22.1687 26.4999C22.1687 22.9496 22.8651 19.5064 24.2336 16.2629C25.5583 13.1314 27.4528 10.3213 29.8684 7.90573C32.284 5.49015 35.094 3.59566 38.2255 2.27099C41.469 0.897613 44.9122 0.206055 48.4625 0.206055C52.0129 0.206055 55.456 0.902483 58.6996 2.27099C61.831 3.59566 64.6411 5.49015 67.0567 7.90573C69.4723 10.3213 71.3668 13.1314 72.6914 16.2629C74.0648 19.5064 74.7564 22.9496 74.7564 26.4999C74.7564 30.0502 74.0599 33.4934 72.6914 36.7369C71.3668 39.8684 69.4723 42.6785 67.0567 45.094C64.6411 47.5096 61.831 49.4041 58.6996 50.7288C55.456 52.0973 52.0129 52.7937 48.4625 52.7937ZM48.4625 2.25151C35.094 2.25151 24.2142 13.1265 24.2142 26.4999C24.2142 39.8684 35.0892 50.7483 48.4625 50.7483C61.831 50.7483 72.7109 39.8733 72.7109 26.4999C72.7109 13.1314 61.8359 2.25151 48.4625 2.25151Z" fill="white"/>
<path d="M30.0779 10.1851H14.9903C14.4253 10.1851 13.9675 9.72731 13.9675 9.16238C13.9675 8.59744 14.4253 8.13965 14.9903 8.13965H30.0779C30.6429 8.13965 31.1006 8.59744 31.1006 9.16238C31.1006 9.72731 30.6429 10.1851 30.0779 10.1851Z" fill="white"/>
<path d="M24.7208 18.854H8.42043C7.8555 18.854 7.39771 18.3963 7.39771 17.8313C7.39771 17.2664 7.8555 16.8086 8.42043 16.8086H24.7208C25.2857 16.8086 25.7435 17.2664 25.7435 17.8313C25.7435 18.3963 25.2857 18.854 24.7208 18.854Z" fill="white"/>
<path d="M23.1915 27.523H10.0081C9.44314 27.523 8.98535 27.0652 8.98535 26.5003C8.98535 25.9353 9.44314 25.4775 10.0081 25.4775H23.1964C23.7613 25.4775 24.2191 25.9353 24.2191 26.5003C24.2191 27.0652 23.7565 27.523 23.1915 27.523Z" fill="white"/>
<path d="M4.87977 27.523H1.26614C0.7012 27.523 0.243408 27.0652 0.243408 26.5003C0.243408 25.9353 0.7012 25.4775 1.26614 25.4775H4.87977C5.44471 25.4775 5.9025 25.9353 5.9025 26.5003C5.9025 27.0652 5.44471 27.523 4.87977 27.523Z" fill="white"/>
<path d="M24.7208 36.1919H8.42043C7.8555 36.1919 7.39771 35.7341 7.39771 35.1692C7.39771 34.6043 7.8555 34.1465 8.42043 34.1465H24.7208C25.2857 34.1465 25.7435 34.6043 25.7435 35.1692C25.7435 35.7341 25.2857 36.1919 24.7208 36.1919Z" fill="white"/>
<path d="M30.0779 44.8609H14.9903C14.4253 44.8609 13.9675 44.4031 13.9675 43.8382C13.9675 43.2732 14.4253 42.8154 14.9903 42.8154H30.0779C30.6429 42.8154 31.1006 43.2732 31.1006 43.8382C31.1006 44.4031 30.6429 44.8609 30.0779 44.8609Z" fill="white"/>
<path d="M48.4625 48.318C45.516 48.318 42.6621 47.7433 39.969 46.6037C37.3732 45.5031 35.0355 43.93 33.0339 41.9284C31.0323 39.9268 29.4592 37.594 28.3586 34.9933C27.219 32.305 26.6443 29.4463 26.6443 26.4998C26.6443 23.5534 27.219 20.6995 28.3586 18.0063C29.4592 15.4105 31.0323 13.0729 33.0339 11.0713C35.0355 9.06963 37.3683 7.49658 39.969 6.39593C42.6573 5.25632 45.516 4.68164 48.4625 4.68164C51.4089 4.68164 54.2628 5.25632 56.956 6.39593C59.5518 7.49658 61.8894 9.06963 63.891 11.0713C65.8927 13.0729 67.4657 15.4057 68.5664 18.0063C69.706 20.6946 70.2807 23.5534 70.2807 26.4998C70.2807 29.4463 69.706 32.3001 68.5664 34.9933C67.4657 37.5891 65.8927 39.9268 63.891 41.9284C61.8894 43.93 59.5566 45.5031 56.956 46.6037C54.2677 47.7385 51.4089 48.318 48.4625 48.318ZM48.4625 6.7271C37.5631 6.7271 28.6897 15.5956 28.6897 26.4998C28.6897 37.404 37.5582 46.2725 48.4625 46.2725C59.3667 46.2725 68.2352 37.404 68.2352 26.4998C68.2352 15.5956 59.3667 6.7271 48.4625 6.7271Z" fill="white"/>
<path d="M48.4625 29.6457C46.7287 29.6457 45.3164 28.2334 45.3164 26.4996C45.3164 24.7659 46.7287 23.3535 48.4625 23.3535C50.1963 23.3535 51.6086 24.7659 51.6086 26.4996C51.6135 28.2334 50.2011 29.6457 48.4625 29.6457ZM48.4625 25.399C47.8537 25.399 47.3619 25.8957 47.3619 26.4996C47.3619 27.1035 47.8586 27.6003 48.4625 27.6003C49.0664 27.6003 49.5632 27.1035 49.5632 26.4996C49.5632 25.8957 49.0713 25.399 48.4625 25.399Z" fill="white"/>
<path d="M48.4627 25.4142C47.8977 25.4142 47.4399 24.9564 47.4399 24.3914V16.346C47.4399 15.781 47.8977 15.3232 48.4627 15.3232C49.0276 15.3232 49.4854 15.781 49.4854 16.346V24.3914C49.4854 24.9564 49.0276 25.4142 48.4627 25.4142Z" fill="white"/>
<path d="M48.4627 9.88294C47.8977 9.88294 47.4399 9.42515 47.4399 8.86021V5.70437C47.4399 5.13943 47.8977 4.68164 48.4627 4.68164C49.0276 4.68164 49.4854 5.13943 49.4854 5.70437V8.86021C49.4854 9.42515 49.0276 9.88294 48.4627 9.88294Z" fill="white"/>
<path d="M35.9901 15.0499C35.7271 15.0499 35.469 14.9525 35.2693 14.7479L33.0388 12.5174C32.6394 12.1181 32.6394 11.4703 33.0388 11.071C33.4381 10.6716 34.0858 10.6716 34.4852 11.071L36.7157 13.3015C37.1151 13.7009 37.1151 14.3486 36.7157 14.7479C36.516 14.9525 36.2531 15.0499 35.9901 15.0499Z" fill="white"/>
<path d="M30.8277 27.523H27.6719C27.107 27.523 26.6492 27.0652 26.6492 26.5003C26.6492 25.9353 27.107 25.4775 27.6719 25.4775H30.8277C31.3927 25.4775 31.8505 25.9353 31.8505 26.5003C31.8505 27.0652 31.3927 27.523 30.8277 27.523Z" fill="white"/>
<path d="M33.7595 42.2257C33.4966 42.2257 33.2384 42.1283 33.0388 41.9237C32.6394 41.5244 32.6394 40.8766 33.0388 40.4773L35.2693 38.2468C35.6686 37.8474 36.3164 37.8474 36.7157 38.2468C37.1151 38.6461 37.1151 39.2939 36.7157 39.6932L34.4852 41.9237C34.2855 42.1283 34.0225 42.2257 33.7595 42.2257Z" fill="white"/>
<path d="M48.4627 48.3185C47.8977 48.3185 47.4399 47.8607 47.4399 47.2958V44.1399C47.4399 43.575 47.8977 43.1172 48.4627 43.1172C49.0276 43.1172 49.4854 43.575 49.4854 44.1399V47.2958C49.4854 47.8607 49.0276 48.3185 48.4627 48.3185Z" fill="white"/>
<path d="M63.1656 42.2257C62.9026 42.2257 62.6445 42.1283 62.4448 41.9237L60.2143 39.6932C59.815 39.2939 59.815 38.6461 60.2143 38.2468C60.6137 37.8474 61.2614 37.8474 61.6607 38.2468L63.8913 40.4773C64.2906 40.8766 64.2906 41.5244 63.8913 41.9237C63.6916 42.1283 63.4286 42.2257 63.1656 42.2257Z" fill="white"/>
<path d="M69.2579 27.523H66.1021C65.5371 27.523 65.0793 27.0652 65.0793 26.5003C65.0793 25.9353 65.5371 25.4775 66.1021 25.4775H69.2579C69.8228 25.4775 70.2806 25.9353 70.2806 26.5003C70.2806 27.0652 69.8228 27.523 69.2579 27.523Z" fill="white"/>
<path d="M60.9351 15.0499C60.6721 15.0499 60.414 14.9476 60.2143 14.7479C59.815 14.3486 59.815 13.7009 60.2143 13.3015L62.4448 11.071C62.8442 10.6716 63.4919 10.6716 63.8913 11.071C64.2906 11.4703 64.2906 12.1181 63.8913 12.5174L61.6607 14.7479C61.4611 14.9525 61.1981 15.0499 60.9351 15.0499Z" fill="white"/>
</svg>
