<svg width="57" height="57" viewBox="0 0 57 57" fill="none" xmlns="http://www.w3.org/2000/svg">
<path d="M45.9281 15.4236C48.8087 15.4236 51.1492 13.0832 51.1492 10.2025C51.1492 7.32194 48.8087 4.98145 45.9281 4.98145C43.0475 4.98145 40.707 7.32194 40.707 10.2025C40.707 13.0832 43.0475 15.4236 45.9281 15.4236ZM45.9281 6.78182C47.8125 6.78182 49.3489 8.31815 49.3489 10.2025C49.3489 12.0869 47.8125 13.6233 45.9281 13.6233C44.0437 13.6233 42.5074 12.0869 42.5074 10.2025C42.5074 8.31815 44.0437 6.78182 45.9281 6.78182Z" fill="white"/>
<path d="M32.0892 16.1916L24.6836 22.889L23.8555 21.9648C23.5194 21.5927 22.9553 21.5687 22.5832 21.9048C22.2111 22.2408 22.1871 22.805 22.5232 23.177L23.3514 24.1012L22.1991 25.1454L21.3709 24.2212C21.0349 23.8492 20.4707 23.8252 20.0987 24.1612C19.7266 24.4973 19.7026 25.0614 20.0387 25.4335L20.8668 26.3577L17.3861 29.4904C17.014 29.8264 16.99 30.3905 17.3261 30.7626C17.6622 31.1347 18.2263 31.1587 18.5984 30.8226L22.0791 27.69L25.9079 31.9269C26.244 32.2989 26.8081 32.323 27.1802 31.9869C27.5522 31.6508 27.5762 31.0867 27.2402 30.7146L23.4114 26.4777L24.5636 25.4335L26.58 27.666C28.8125 30.1265 32.7133 30.2465 35.2939 27.918C37.8744 25.5895 38.1865 21.7487 36.014 19.1802C36.002 19.1682 36.002 19.1682 35.99 19.1562L33.3615 16.2516C33.0254 15.8795 32.4613 15.8555 32.0892 16.1916ZM34.6457 20.3564C36.182 22.1808 35.93 24.9054 34.0816 26.5737C32.2452 28.2301 29.4726 28.1821 27.9123 26.4537L25.8959 24.2212L32.6413 18.136L34.6457 20.3564Z" fill="white"/>
<path d="M55.206 0H32.8333C32.6172 0 32.4132 0.0720137 32.2452 0.216044L1.20662 26.9337C1.01458 27.0897 0.906562 27.3298 0.894559 27.5818C0.882557 27.8339 0.978577 28.0739 1.15861 28.254L23.5313 50.2306C23.7114 50.3986 23.9394 50.4826 24.1675 50.4826C24.3715 50.4826 24.5875 50.4106 24.7556 50.2786L55.7941 23.645C55.9862 23.4769 56.1062 23.2249 56.1062 22.9608V0.90019C56.1062 0.408086 55.6981 0 55.206 0ZM54.3178 22.5407L24.2155 48.3582L3.12703 27.6538L33.1814 1.78838H54.3178V22.5407Z" fill="white"/>
<path d="M54.6178 28.794L24.2154 54.8754L2.43078 33.1149C2.08271 32.7668 1.50659 32.7668 1.15852 33.1149C0.810443 33.4629 0.810443 34.0391 1.15852 34.3871L23.5312 56.7358C23.7113 56.9159 23.9393 56.9999 24.1674 56.9999C24.3714 56.9999 24.5875 56.9279 24.7555 56.7959L55.794 30.1622C56.1661 29.8382 56.2141 29.2621 55.89 28.89C55.566 28.5179 54.9898 28.4699 54.6178 28.794Z" fill="white"/>
</svg>
