<svg width="61" height="61" viewBox="0 0 61 61" fill="none" xmlns="http://www.w3.org/2000/svg">
<g clip-path="url(#clip0_142_184)">
<path d="M14.1682 15.315L13.0773 13.3233C12.891 12.9839 12.617 12.7007 12.2838 12.5035C11.9506 12.3062 11.5705 12.2021 11.1833 12.2021C10.796 12.2021 10.416 12.3062 10.0827 12.5035C9.74954 12.7007 9.47546 12.9839 9.28921 13.3233L8.19832 15.315L6.20667 16.4049C5.86698 16.5912 5.58362 16.8654 5.38624 17.1988C5.18886 17.5322 5.08472 17.9125 5.08472 18.2999C5.08472 18.6874 5.18886 19.0677 5.38624 19.4011C5.58362 19.7345 5.86698 20.0087 6.20667 20.195L8.19832 21.2849L9.28921 23.2816C9.47546 23.6211 9.74954 23.9042 10.0827 24.1015C10.416 24.2987 10.796 24.4028 11.1833 24.4028C11.5705 24.4028 11.9506 24.2987 12.2838 24.1015C12.617 23.9042 12.891 23.6211 13.0773 23.2816L14.1682 21.2899L16.1649 20.195C16.5046 20.0087 16.788 19.7345 16.9854 19.4011C17.1827 19.0677 17.2869 18.6874 17.2869 18.2999C17.2869 17.9125 17.1827 17.5322 16.9854 17.1988C16.788 16.8654 16.5046 16.5912 16.1649 16.4049L14.1682 15.315ZM15.1849 18.4107C13.0316 19.5972 12.7377 19.6623 12.5263 20.0476L11.2941 22.3005C11.2598 22.3181 11.2218 22.3273 11.1833 22.3273C11.1447 22.3273 11.1067 22.3181 11.0724 22.3005C9.73756 19.8788 9.78432 19.8331 9.43561 19.6429C6.98137 18.2999 7.11659 18.4077 7.11659 18.2999C7.11659 18.1922 6.99865 18.2887 9.43561 16.9569C9.79042 16.7627 9.74772 16.7017 11.0724 14.2993C11.083 14.2791 11.0989 14.2622 11.1185 14.2503C11.138 14.2385 11.1604 14.2322 11.1833 14.2322C11.2061 14.2322 11.2285 14.2385 11.248 14.2503C11.2676 14.2622 11.2835 14.2791 11.2941 14.2993C12.6645 16.7007 12.5822 16.7668 12.9309 16.9569C15.3851 18.2999 15.2499 18.1922 15.2499 18.2999C15.251 18.3227 15.2454 18.3453 15.2338 18.365C15.2223 18.3846 15.2053 18.4005 15.1849 18.4107Z" fill="white"/>
<path d="M27.5567 22.2282L29.5483 23.3181L30.6392 25.3148C30.8255 25.6543 31.0995 25.9374 31.4327 26.1347C31.7659 26.3319 32.146 26.436 32.5333 26.436C32.9205 26.436 33.3006 26.3319 33.6338 26.1347C33.967 25.9374 34.241 25.6543 34.4273 25.3148L35.5182 23.3232L37.5149 22.2282C37.8546 22.0419 38.138 21.7677 38.3354 21.4343C38.5327 21.1009 38.6369 20.7206 38.6369 20.3331C38.6369 19.9457 38.5327 19.5654 38.3354 19.232C38.138 18.8986 37.8546 18.6244 37.5149 18.4381L35.5233 17.3482L34.4324 15.3565C34.2461 15.0171 33.9721 14.7339 33.6389 14.5367C33.3056 14.3394 32.9256 14.2354 32.5383 14.2354C32.1511 14.2354 31.771 14.3394 31.4378 14.5367C31.1046 14.7339 30.8305 15.0171 30.6443 15.3565L29.5534 17.3482L27.5618 18.4381C27.2218 18.6239 26.9381 18.8978 26.7403 19.2309C26.5424 19.564 26.4378 19.9442 26.4373 20.3316C26.4367 20.7191 26.5404 21.0995 26.7373 21.4332C26.9342 21.7668 27.2172 22.0414 27.5567 22.2282ZM28.5317 20.2223C30.685 19.0359 30.9788 18.9708 31.1902 18.5855C32.516 16.1648 32.4204 16.2665 32.5333 16.2665C32.6461 16.2665 32.5424 16.1496 33.8763 18.5855C34.0705 18.9403 34.1254 18.8905 36.5349 20.2223C36.5548 20.2331 36.5715 20.2491 36.5831 20.2687C36.5947 20.2882 36.6008 20.3104 36.6008 20.3331C36.6008 20.3558 36.5947 20.3781 36.5831 20.3976C36.5715 20.4171 36.5548 20.4331 36.5349 20.4439C34.3816 21.6304 34.0877 21.6955 33.8763 22.0808L32.6441 24.3337C32.6098 24.3513 32.5718 24.3605 32.5333 24.3605C32.4947 24.3605 32.4567 24.3513 32.4224 24.3337C31.0876 21.912 31.1343 21.8663 30.7856 21.6761C28.3314 20.3331 28.4666 20.4409 28.4666 20.3331C28.4656 20.3103 28.4712 20.2878 28.4827 20.2681C28.4943 20.2484 28.5113 20.2325 28.5317 20.2223Z" fill="white"/>
<path d="M20.68 13.9483C20.8957 14.3419 21.2133 14.6703 21.5994 14.899C21.9856 15.1277 22.4262 15.2484 22.875 15.2484C23.3238 15.2484 23.7644 15.1277 24.1505 14.899C24.5367 14.6703 24.8543 14.3419 25.07 13.9483L26.535 11.2847L29.1997 9.82067C29.5929 9.60444 29.9209 9.28658 30.1493 8.90028C30.3777 8.51399 30.4983 8.07345 30.4983 7.62467C30.4983 7.17589 30.3777 6.73535 30.1493 6.34906C29.9209 5.96277 29.5929 5.6449 29.1997 5.42867L26.535 3.96975L25.07 1.301C24.8543 0.907424 24.5367 0.579084 24.1505 0.350369C23.7644 0.121653 23.3238 0.000976562 22.875 0.000976562C22.4262 0.000976562 21.9856 0.121653 21.5994 0.350369C21.2133 0.579084 20.8957 0.907424 20.68 1.301L19.2201 3.96975L16.5503 5.42867C16.157 5.6449 15.8291 5.96277 15.6006 6.34906C15.3722 6.73535 15.2517 7.17589 15.2517 7.62467C15.2517 8.07345 15.3722 8.51399 15.6006 8.90028C15.8291 9.28658 16.157 9.60444 16.5503 9.82067L19.2201 11.2847L20.68 13.9483ZM17.5263 7.218L20.4563 5.61574C20.8051 5.42562 20.7034 5.49984 22.4632 2.28209C22.5035 2.20802 22.563 2.14619 22.6355 2.10311C22.7079 2.06003 22.7907 2.03729 22.875 2.03729C22.9593 2.03729 23.042 2.06003 23.1145 2.10311C23.187 2.14619 23.2465 2.20802 23.2867 2.28209C24.9978 5.39817 24.9358 5.42054 25.2936 5.61574L28.2227 7.218C28.2967 7.25828 28.3585 7.31778 28.4016 7.39024C28.4447 7.46271 28.4674 7.54545 28.4674 7.62975C28.4674 7.71406 28.4447 7.7968 28.4016 7.86927C28.3585 7.94173 28.2967 8.00123 28.2227 8.0415L25.2936 9.63869C24.9449 9.8288 25.0466 9.75459 23.2867 12.9723C23.2465 13.0464 23.187 13.1082 23.1145 13.1513C23.042 13.1944 22.9593 13.2171 22.875 13.2171C22.7907 13.2171 22.7079 13.1944 22.6355 13.1513C22.563 13.1082 22.5035 13.0464 22.4632 12.9723C20.7573 9.8532 20.8142 9.83389 20.4563 9.63869L17.5273 8.03642C17.4544 7.99585 17.3937 7.93656 17.3514 7.86468C17.3091 7.79279 17.2867 7.71092 17.2866 7.62751C17.2865 7.5441 17.3087 7.46217 17.3508 7.39019C17.3929 7.3182 17.4535 7.25876 17.5263 7.218Z" fill="white"/>
<path d="M58.9667 15.25H46.7667C46.2274 15.25 45.7102 15.4642 45.3289 15.8456C44.9476 16.2269 44.7333 16.7441 44.7333 17.2833V34.5667H2.03333C1.49406 34.5667 0.976874 34.7809 0.59555 35.1622C0.214226 35.5435 0 36.0607 0 36.6L0 58.9667C0 59.5059 0.214226 60.0231 0.59555 60.4045C0.976874 60.7858 1.49406 61 2.03333 61H58.9667C59.5059 61 60.0231 60.7858 60.4044 60.4045C60.7858 60.0231 61 59.5059 61 58.9667V17.2833C61 16.7441 60.7858 16.2269 60.4044 15.8456C60.0231 15.4642 59.5059 15.25 58.9667 15.25ZM58.9667 17.2833V29.4833H46.7667V17.2833H58.9667ZM24.4 46.7667H33.55V58.9667H24.4V46.7667ZM35.5833 46.7667H44.7333V58.9667H35.5833V46.7667ZM44.7333 44.7333H24.4V36.6H44.7333V44.7333ZM22.3667 36.6V42.7H2.03333V36.6H22.3667ZM2.03333 44.7333H22.3667V58.9667H2.03333V44.7333ZM46.7667 58.9667V31.5167H58.9667V58.9667H46.7667Z" fill="white"/>
<path d="M6.09992 40.6671C6.66141 40.6671 7.11659 40.2119 7.11659 39.6505C7.11659 39.089 6.66141 38.6338 6.09992 38.6338C5.53843 38.6338 5.08325 39.089 5.08325 39.6505C5.08325 40.2119 5.53843 40.6671 6.09992 40.6671Z" fill="white"/>
<path d="M12.2 40.6671C12.7615 40.6671 13.2167 40.2119 13.2167 39.6505C13.2167 39.089 12.7615 38.6338 12.2 38.6338C11.6385 38.6338 11.1833 39.089 11.1833 39.6505C11.1833 40.2119 11.6385 40.6671 12.2 40.6671Z" fill="white"/>
<path d="M18.3001 40.6671C18.8616 40.6671 19.3168 40.2119 19.3168 39.6505C19.3168 39.089 18.8616 38.6338 18.3001 38.6338C17.7386 38.6338 17.2834 39.089 17.2834 39.6505C17.2834 40.2119 17.7386 40.6671 18.3001 40.6671Z" fill="white"/>
<path d="M18.3 46.7666H6.09998C5.56071 46.7666 5.04352 46.9808 4.6622 47.3621C4.28088 47.7435 4.06665 48.2607 4.06665 48.7999V54.8999C4.06665 55.4392 4.28088 55.9564 4.6622 56.3377C5.04352 56.719 5.56071 56.9333 6.09998 56.9333H18.3C18.8393 56.9333 19.3564 56.719 19.7378 56.3377C20.1191 55.9564 20.3333 55.4392 20.3333 54.8999V48.7999C20.3333 48.2607 20.1191 47.7435 19.7378 47.3621C19.3564 46.9808 18.8393 46.7666 18.3 46.7666ZM6.09998 54.8999V48.7999H18.3V54.8999H6.09998Z" fill="white"/>
<path d="M49.8167 26.4329C50.0864 26.4329 50.3449 26.3258 50.5356 26.1351C50.7263 25.9444 50.8334 25.6858 50.8334 25.4162V23.3829C50.8334 23.1132 50.7263 22.8546 50.5356 22.664C50.3449 22.4733 50.0864 22.3662 49.8167 22.3662C49.5471 22.3662 49.2885 22.4733 49.0978 22.664C48.9072 22.8546 48.8 23.1132 48.8 23.3829V25.4162C48.8 25.6858 48.9072 25.9444 49.0978 26.1351C49.2885 26.3258 49.5471 26.4329 49.8167 26.4329Z" fill="white"/>
<path d="M49.8167 34.5664C49.5471 34.5664 49.2885 34.6735 49.0978 34.8642C48.9072 35.0548 48.8 35.3134 48.8 35.5831V37.6164C48.8 37.886 48.9072 38.1446 49.0978 38.3353C49.2885 38.526 49.5471 38.6331 49.8167 38.6331C50.0864 38.6331 50.3449 38.526 50.5356 38.3353C50.7263 38.1446 50.8334 37.886 50.8334 37.6164V35.5831C50.8334 35.3134 50.7263 35.0548 50.5356 34.8642C50.3449 34.6735 50.0864 34.5664 49.8167 34.5664Z" fill="white"/>
<path d="M38.6334 48.7998C38.3637 48.7998 38.1051 48.9069 37.9145 49.0976C37.7238 49.2882 37.6167 49.5468 37.6167 49.8165V51.8498C37.6167 52.1194 37.7238 52.378 37.9145 52.5687C38.1051 52.7594 38.3637 52.8665 38.6334 52.8665C38.903 52.8665 39.1616 52.7594 39.3523 52.5687C39.5429 52.378 39.65 52.1194 39.65 51.8498V49.8165C39.65 49.5468 39.5429 49.2882 39.3523 49.0976C39.1616 48.9069 38.903 48.7998 38.6334 48.7998Z" fill="white"/>
<path d="M30.5001 48.7998C30.2304 48.7998 29.9718 48.9069 29.7812 49.0976C29.5905 49.2882 29.4834 49.5468 29.4834 49.8165V51.8498C29.4834 52.1194 29.5905 52.378 29.7812 52.5687C29.9718 52.7594 30.2304 52.8665 30.5001 52.8665C30.7697 52.8665 31.0283 52.7594 31.219 52.5687C31.4096 52.378 31.5167 52.1194 31.5167 51.8498V49.8165C31.5167 49.5468 31.4096 49.2882 31.219 49.0976C31.0283 48.9069 30.7697 48.7998 30.5001 48.7998Z" fill="white"/>
</g>
<defs>
<clipPath id="clip0_142_184">
<rect width="61" height="61" fill="white"/>
</clipPath>
</defs>
</svg>
