<svg width="61" height="61" viewBox="0 0 61 61" fill="none" xmlns="http://www.w3.org/2000/svg">
<path d="M39.9065 16.418H10.6945C10.1989 16.418 9.79712 16.8197 9.79712 17.3153C9.79712 17.811 10.1989 18.2127 10.6945 18.2127H39.9066C40.4022 18.2127 40.8039 17.811 40.8039 17.3153C40.8039 16.8197 40.4021 16.418 39.9065 16.418Z" fill="white"/>
<path d="M10.6945 11.9881H25.3004C25.796 11.9881 26.1978 11.5864 26.1978 11.0907C26.1978 10.5951 25.796 10.1934 25.3004 10.1934H10.6945C10.1989 10.1934 9.79712 10.5951 9.79712 11.0907C9.79712 11.5865 10.1989 11.9881 10.6945 11.9881Z" fill="white"/>
<path d="M39.9065 21.9336H10.6945C10.1989 21.9336 9.79712 22.3353 9.79712 22.831C9.79712 23.3266 10.1989 23.7283 10.6945 23.7283H39.9066C40.4022 23.7283 40.8039 23.3266 40.8039 22.831C40.8038 22.3353 40.4021 21.9336 39.9065 21.9336Z" fill="white"/>
<path d="M17.349 54.7651H8.00035C6.46594 54.7651 5.21747 53.5168 5.21747 51.9824V4.5775C5.21747 3.04309 6.46594 1.79462 8.00035 1.79462H34.9328C35.0198 1.79462 35.1054 1.8026 35.1901 1.81404V7.41055C35.1901 9.93466 37.2437 11.988 39.7677 11.988H45.364C45.3756 12.0729 45.3835 12.1585 45.3835 12.2455V27.5266C45.3835 28.0222 45.7852 28.424 46.2808 28.424C46.7765 28.424 47.1782 28.0222 47.1782 27.5266V12.2456C47.1782 11.2613 46.7948 10.3358 46.0988 9.63967L37.5385 1.07941C36.8425 0.383395 35.9171 0 34.9328 0H8.00035C5.47624 0 3.42285 2.05351 3.42285 4.5775V51.9824C3.42285 54.5064 5.47636 56.5597 8.00035 56.5597H17.349C17.8446 56.5597 18.2463 56.158 18.2463 55.6624C18.2463 55.1668 17.8446 54.7651 17.349 54.7651ZM44.1145 10.1934H39.7678C38.2334 10.1934 36.9849 8.94496 36.9849 7.41055V3.06382L44.1145 10.1934Z" fill="white"/>
<path d="M57.3016 43.9306L49.6982 31.0967C49.1441 30.161 47.9382 29.8517 47.002 30.4063L45.1525 31.5021C43.717 32.3525 43.1102 34.0735 43.6031 35.5986C42.98 35.8244 42.2969 35.8208 41.6678 35.5776C40.2076 35.1182 39.0975 34.194 37.264 34.6577C34.1509 35.4504 34.2455 35.4107 33.9638 35.5072C32.141 34.4694 31.0452 34.1606 29.1101 34.9091L27.3852 35.5759C26.5866 35.8845 25.7067 35.8114 24.9687 35.3741L24.498 35.0966C24.7277 33.7203 24.1173 32.2679 22.8249 31.5023C22.8249 31.5023 22.8249 31.5023 22.8248 31.5022L20.9755 30.4066C20.0419 29.8536 18.8324 30.1631 18.2793 31.0967L10.6758 43.9307C10.1216 44.8662 10.43 46.0725 11.3659 46.6268L13.2152 47.7225C13.7748 48.054 14.3898 48.2116 14.9975 48.2116C15.675 48.2116 16.343 48.0153 16.9142 47.6455L17.2996 47.8729L16.4859 49.0063C15.5162 50.3571 15.8243 52.2355 17.1753 53.2053C17.8001 53.6537 18.585 53.8586 19.3967 53.7311C19.5255 54.4839 19.938 55.1885 20.6059 55.6682C21.2332 56.1185 22.0145 56.3236 22.8276 56.1955C22.9568 56.9478 23.369 57.6518 24.0365 58.1311C24.9337 58.775 26.0491 58.8495 26.9785 58.4525C27.1819 58.9808 27.5353 59.4578 28.0285 59.8119C29.3161 60.7361 31.0899 60.495 32.0904 59.2977L34.2528 60.5787C35.6829 61.4261 37.528 60.9552 38.3759 59.5234C38.5928 59.1574 38.7273 58.7586 38.7765 58.3486L38.7814 58.3516C40.2093 59.1972 42.0586 58.7238 42.9045 57.2962C43.1494 56.8827 43.2837 56.4341 43.3164 55.9846C44.575 56.3011 45.9466 55.7724 46.6412 54.6001C46.8691 54.2155 47.0013 53.8001 47.0447 53.382C48.3937 53.9113 49.9702 53.3997 50.732 52.114C51.1417 51.4224 51.2577 50.6127 51.0583 49.8339C50.9443 49.3883 50.7346 48.9838 50.4468 48.6422L51.6387 47.9458C52.647 48.3597 53.7976 48.2935 54.762 47.7223L56.611 46.6267C57.547 46.0727 57.8562 44.8667 57.3016 43.9306ZM14.13 46.1785L12.2807 45.0828C12.1985 45.034 12.1712 44.9275 12.2198 44.8453L19.8234 32.0111C19.8723 31.9286 19.9792 31.9018 20.0609 31.9504L21.9101 33.0459C22.7318 33.5328 22.9889 34.5867 22.5109 35.3934L16.4775 45.5776C15.996 46.3906 14.943 46.66 14.13 46.1785ZM18.2219 51.7474C17.6769 51.3561 17.5523 50.5982 17.9438 50.053L19.1399 48.3869C19.5209 47.8561 20.2802 47.7109 20.8343 48.1087C21.3782 48.4991 21.5029 49.2591 21.1126 49.803L19.9164 51.4691C19.526 52.0132 18.7655 52.1376 18.2219 51.7474ZM21.6525 54.2104C21.1087 53.8198 20.9839 53.0596 21.3743 52.5158L22.5704 50.8499C22.5704 50.8499 22.5704 50.8499 22.5704 50.8498C22.5704 50.8498 22.5704 50.8497 22.5705 50.8497L23.8905 49.0111C24.0797 48.7477 24.36 48.5735 24.68 48.5211C24.7465 48.5101 24.8131 48.5047 24.8792 48.5047C25.1311 48.5047 25.3762 48.5831 25.5849 48.7329C25.8482 48.9221 26.0224 49.2023 26.0748 49.5223C26.1273 49.8424 26.0522 50.1638 25.863 50.4272L23.3468 53.9321C22.9558 54.4771 22.1977 54.6019 21.6525 54.2104ZM25.0832 56.6731C24.5395 56.2828 24.4147 55.5232 24.8044 54.9794C24.8045 54.9792 24.8048 54.979 24.8049 54.9787L27.321 51.474C27.7112 50.9302 28.4718 50.8053 29.0154 51.1956C29.5593 51.5861 29.684 52.3462 29.2936 52.8901L28.1757 54.4473C28.1757 54.4473 28.1757 54.4473 28.1756 54.4475L26.7775 56.3949C26.3871 56.9388 25.6272 57.0638 25.0832 56.6731ZM29.0751 58.354C28.5316 57.9637 28.4066 57.2044 28.7961 56.6605L29.6335 55.4941C30.0238 54.9501 30.7843 54.8257 31.3279 55.2159C31.8717 55.6062 31.9966 56.3665 31.6061 56.9103L30.7694 58.0757C30.3791 58.6196 29.6188 58.7445 29.0751 58.354ZM49.1883 51.1993C48.8469 51.7756 48.1006 51.9667 47.5242 51.6254C46.5482 51.0472 40.2523 47.3173 39.5811 46.9196C39.1545 46.667 38.6042 46.8077 38.3516 47.2341C38.0991 47.6605 38.2398 48.2109 38.6662 48.4635L44.6712 52.0212L44.6713 52.0213C45.2479 52.3627 45.4402 53.1068 45.0974 53.6856C44.7558 54.2621 44.0092 54.4528 43.433 54.1117C41.212 52.7959 39.4085 51.7275 37.4247 50.5522C36.9981 50.2996 36.4479 50.4403 36.1953 50.8667C35.9427 51.2931 36.0834 51.8435 36.5098 52.0961L40.9345 54.7174L40.9354 54.718C41.5123 55.0606 41.7027 55.8042 41.3607 56.3818C41.0191 56.9584 40.2727 57.1493 39.6961 56.8079L37.3216 55.4012C37.3213 55.4011 37.321 55.4009 37.3207 55.4007C37.3205 55.4006 37.3202 55.4005 37.32 55.4004L35.5871 54.3736C35.1606 54.1209 34.6103 54.2616 34.3577 54.6881C34.1051 55.1145 34.2458 55.665 34.6722 55.9175L36.4055 56.9444C36.4057 56.9445 36.406 56.9448 36.4062 56.9449C36.9827 57.2863 37.175 58.0303 36.8322 58.609C36.4907 59.1856 35.7442 59.3765 35.1677 59.0351L33.1458 57.8374C34.0125 56.4999 33.6829 54.6975 32.3746 53.7585C31.9904 53.4828 31.5625 53.3111 31.1249 53.2374C31.5891 51.9963 31.1889 50.5473 30.062 49.7383C29.3948 49.2591 28.5959 49.0936 27.842 49.2118C27.7079 48.4273 27.2788 47.7401 26.6315 47.2756C25.4142 46.4019 23.7598 46.5698 22.7379 47.6036C22.5302 47.2389 22.2436 46.9117 21.8809 46.6514C20.8693 45.9253 19.5559 45.9185 18.5544 46.5301L18.1432 46.2874L23.7869 36.761L24.0556 36.9195C25.2422 37.6224 26.6903 37.769 28.0323 37.25L29.7572 36.5832C30.7443 36.2017 31.2886 36.1768 32.265 36.6375C31.6262 37.3552 31.2469 38.2975 31.2469 39.313V43.2917C31.2469 44.3485 32.1061 45.2088 33.162 45.2095H33.1646C34.2238 45.2095 35.2198 44.7972 35.9691 44.0484C36.4058 43.6119 36.7282 43.0915 36.9215 42.5234C38.0801 43.2095 47.6527 48.8781 48.7625 49.5357C49.0417 49.701 49.2397 49.9652 49.3201 50.2794C49.4005 50.5934 49.3537 50.9202 49.1883 51.1993ZM55.6967 45.0828L53.8473 46.1785C53.0343 46.6598 51.9813 46.3902 51.5 45.5777L48.6721 40.8043C48.4194 40.3779 47.8687 40.2372 47.4427 40.4895C47.0163 40.7421 46.8754 41.2925 47.1279 41.719L49.9558 46.4924C50.0091 46.5823 50.0669 46.6677 50.1267 46.751L49.3405 47.2103C49.1815 47.3044 49.0287 47.408 48.8825 47.5206L36.6917 40.3013C36.0944 39.9478 35.3371 40.3787 35.3371 41.0733C35.3277 41.1269 35.4298 42.0493 34.7003 42.7786C34.29 43.1886 33.7446 43.4144 33.1645 43.4144C33.164 43.4144 33.1635 43.4144 33.1631 43.4144C33.096 43.4144 33.0414 43.3592 33.0414 43.2913V39.3126C33.0414 38.2732 33.7565 37.3963 34.7236 37.1515L37.704 36.3972C38.7854 36.1239 39.3967 36.7013 41.016 37.2494C42.1401 37.6843 43.3623 37.6575 44.4472 37.1941L44.9888 38.1084C45.2415 38.535 45.792 38.6756 46.2183 38.4232C46.6447 38.1706 46.7855 37.6202 46.533 37.1938L45.4662 35.3932C44.9836 34.5785 45.2525 33.5286 46.0671 33.0458L47.9164 31.9503C47.9971 31.9022 48.104 31.9268 48.1541 32.0111L55.7574 44.8451C55.8065 44.9279 55.7794 45.0338 55.6967 45.0828Z" fill="white"/>
</svg>
