<svg width="61" height="61" viewBox="0 0 61 61" fill="none" xmlns="http://www.w3.org/2000/svg">
<g clip-path="url(#clip0_142_117)">
<path d="M29.5451 45.8398H28.5285V22.7958H37.1853C37.6788 22.7958 38.0789 22.3957 38.0789 21.9022C38.0789 21.4087 37.6788 21.0087 37.1853 21.0087H28.5285V11.3352H45.7809C45.8148 11.3352 45.8423 11.3627 45.8423 11.3966V20.9471C45.8423 20.981 45.8148 21.0087 45.7809 21.0087H41.0056C40.5121 21.0087 40.112 21.4087 40.112 21.9022C40.112 22.3957 40.5121 22.7958 41.0056 22.7958H43.9322V29.545C43.9322 30.0384 44.3322 30.4385 44.8257 30.4385C45.3192 30.4385 45.7193 30.0384 45.7193 29.545V22.7958H45.7809C46.8002 22.7958 47.6294 21.9664 47.6294 20.9471V11.3966C47.6294 10.3773 46.8002 9.54804 45.7809 9.54804H43.5113L40.7329 2.87974C40.1933 1.58457 39.1136 0.608566 37.7707 0.202058C36.4277 -0.204449 34.988 0.00857404 33.8207 0.78692L26.1123 5.92367C25.6865 5.7969 25.2362 5.7278 24.7698 5.7278H22.8597C22.3955 5.7278 21.947 5.79643 21.5229 5.922L13.8088 0.78692C12.6413 0.00857404 11.2015 -0.204569 9.85865 0.202058C8.51581 0.608566 7.43616 1.58457 6.89657 2.87974L4.1181 9.54804H1.84859C0.829338 9.54804 0 10.3773 0 11.3966V20.9471C0 21.9664 0.829219 22.7958 1.84859 22.7958H1.91006V45.7784C1.91006 46.7977 2.73928 47.6269 3.75865 47.6269H29.5451C30.0386 47.6269 30.4386 47.2269 30.4386 46.7334C30.4386 46.2399 30.0386 45.8398 29.5451 45.8398ZM26.7414 45.8398H20.8881V11.3352H26.7414V45.8398ZM34.8119 2.27391C35.5333 1.79294 36.4227 1.66117 37.2528 1.91256C38.0826 2.16371 38.7497 2.7668 39.0832 3.56719L41.5753 9.54804H31.9547L35.7186 7.3972C36.147 7.15236 36.2959 6.60658 36.0511 6.17803C35.8062 5.74948 35.2603 5.60056 34.8319 5.84551L29.2661 9.02609C29.0035 8.19389 28.5154 7.46153 27.8743 6.89907L34.8119 2.27391ZM24.7698 7.51491C26.072 7.51491 27.1778 8.36998 27.5564 9.54792H20.073C20.4517 8.36998 21.5575 7.51491 22.8596 7.51491H24.7698ZM8.54608 3.56719C8.87955 2.76692 9.54674 2.16383 10.3766 1.91256C11.2062 1.66129 12.0961 1.79306 12.8175 2.27391L19.7552 6.89907C19.1142 7.46153 18.626 8.19389 18.3634 9.02609L12.7975 5.84563C12.3689 5.6008 11.8232 5.7496 11.5783 6.17815C11.3335 6.6067 11.4823 7.15248 11.9108 7.39732L15.6749 9.54816H6.05425L8.54608 3.56719ZM3.69729 45.7782V22.7958H16.1744C16.6679 22.7958 17.068 22.3957 17.068 21.9022C17.068 21.4087 16.6679 21.0087 16.1744 21.0087H1.84859C1.81463 21.0087 1.78711 20.981 1.78711 20.9471V11.3966C1.78711 11.3627 1.81463 11.3352 1.84859 11.3352H19.101V45.8398H3.75877C3.72481 45.8398 3.69729 45.8122 3.69729 45.7782Z" fill="white"/>
<path d="M46.7359 32.4717C38.8706 32.4717 32.4717 38.8706 32.4717 46.7359C32.4717 54.6012 38.8706 61.0001 46.7359 61.0001C54.6012 61.0001 61 54.6012 61 46.7359C61 38.8706 54.6012 32.4717 46.7359 32.4717ZM46.7359 59.213C39.856 59.213 34.2588 53.6159 34.2588 46.7359C34.2588 39.8559 39.856 34.2588 46.7359 34.2588C53.6158 34.2588 59.2129 39.856 59.2129 46.7359C59.2129 53.6158 53.6158 59.213 46.7359 59.213Z" fill="white"/>
<path d="M51.8342 40.374L40.3735 51.8346C40.0246 52.1836 40.0246 52.7494 40.3735 53.0982C40.548 53.2727 40.7767 53.36 41.0053 53.36C41.234 53.36 41.4627 53.2728 41.6371 53.0982L53.0978 41.6376C53.4467 41.2887 53.4467 40.7229 53.0978 40.374C52.7489 40.0251 52.1831 40.0251 51.8342 40.374Z" fill="white"/>
<path d="M42.9157 45.7195C44.4616 45.7195 45.7193 44.4618 45.7193 42.9159C45.7193 41.3701 44.4615 40.1123 42.9157 40.1123C41.3698 40.1123 40.1121 41.3701 40.1121 42.9159C40.1121 44.4618 41.3697 45.7195 42.9157 45.7195ZM42.9157 41.8994C43.4762 41.8994 43.9322 42.3555 43.9322 42.9159C43.9322 43.4764 43.4761 43.9324 42.9157 43.9324C42.3552 43.9324 41.8992 43.4764 41.8992 42.9159C41.8992 42.3555 42.3551 41.8994 42.9157 41.8994Z" fill="white"/>
<path d="M50.5558 47.752C49.0098 47.752 47.7522 49.0097 47.7522 50.5556C47.7522 52.1014 49.01 53.3592 50.5558 53.3592C52.1017 53.3592 53.3594 52.1014 53.3594 50.5556C53.3594 49.0097 52.1018 47.752 50.5558 47.752ZM50.5558 51.5722C49.9953 51.5722 49.5393 51.1161 49.5393 50.5557C49.5393 49.9953 49.9954 49.5392 50.5558 49.5392C51.1163 49.5392 51.5723 49.9953 51.5723 50.5557C51.5723 51.1161 51.1164 51.5722 50.5558 51.5722Z" fill="white"/>
</g>
<defs>
<clipPath id="clip0_142_117">
<rect width="61" height="61" fill="white"/>
</clipPath>
</defs>
</svg>
