<svg width="61" height="61" viewBox="0 0 61 61" fill="none" xmlns="http://www.w3.org/2000/svg">
<path d="M22.3249 18.8329C22.9702 19.582 22.9826 20.8582 22.3526 21.6198L21.0229 23.2249C20.3786 24.0026 20.1632 24.9043 20.4301 25.7011C20.697 26.4969 21.4147 27.086 22.3974 27.3185L24.4266 27.796C25.3883 28.0229 26.1489 29.0475 26.0869 30.034L25.9554 32.1146C25.9029 32.9448 26.1346 33.6797 26.6083 34.1848C27.2812 34.9006 28.383 35.0751 29.4724 34.6176L31.3949 33.8112C32.2736 33.4452 33.548 33.8503 34.0531 34.6452L35.1702 36.4075C35.7058 37.252 36.4893 37.7362 37.3214 37.7362C38.1697 37.7362 38.9589 37.2358 39.4878 36.3646L40.5696 34.5823C41.0605 33.7712 42.3158 33.3423 43.2107 33.6959L45.1494 34.4632C46.2398 34.8968 47.3301 34.7071 47.9897 33.9904C48.4634 33.4748 48.6864 32.7294 48.6169 31.8916L48.4444 29.8138C48.3624 28.8283 49.102 27.7894 50.0589 27.5435L52.0786 27.0259C53.0565 26.7752 53.7618 26.1719 54.0135 25.3703C54.2651 24.5688 54.0306 23.6719 53.372 22.9065L52.0109 21.3281C51.3657 20.579 51.3533 19.3027 51.9833 18.5412L53.3129 16.9352C53.9572 16.1584 54.1736 15.2558 53.9058 14.4599C53.6389 13.6631 52.9212 13.0741 51.9385 12.8425L49.9093 12.3649C48.9476 12.1381 48.187 11.1135 48.249 10.127L48.3805 8.04634C48.4329 7.21616 48.2013 6.48035 47.7276 5.97615C47.0557 5.2594 45.9538 5.08498 44.8635 5.54343L42.941 6.34977C42.0613 6.71577 40.7879 6.31165 40.2827 5.51484L39.1666 3.75441C38.631 2.90899 37.8475 2.4248 37.0154 2.4248C36.1671 2.4248 35.378 2.9252 34.849 3.79635L33.7672 5.5787C33.2754 6.3898 32.0163 6.81776 31.1261 6.4651L29.1865 5.69688C28.0961 5.26512 27.0067 5.45288 26.3462 6.17059C25.8724 6.68527 25.6494 7.43157 25.719 8.26937L25.8915 10.3472C25.9735 11.3327 25.2339 12.3716 24.276 12.6166L22.2563 13.1351C21.2784 13.3857 20.5731 13.9891 20.3214 14.7906C20.0698 15.5913 20.3043 16.4891 20.9629 17.2545L22.3249 18.8329ZM22.0866 15.3435C22.141 15.169 22.3773 15.0127 22.7167 14.926L24.7354 14.4075C26.5749 13.9366 27.8931 12.0857 27.7349 10.1928L27.5623 8.11496C27.5366 7.80329 27.589 7.55071 27.7072 7.42204C27.7329 7.3944 27.8111 7.30957 28.0256 7.30957C28.1647 7.30957 28.3306 7.34579 28.505 7.41537L30.4436 8.18359C30.8821 8.35801 31.3539 8.4457 31.8457 8.4457C33.2697 8.4457 34.6441 7.69749 35.3475 6.53659L36.4293 4.75424C36.7934 4.15282 37.2289 4.15091 37.6035 4.7428L38.7196 6.50323C39.4287 7.6222 40.786 8.34466 42.1785 8.34466C42.698 8.34466 43.1945 8.24745 43.6549 8.05396L45.5783 7.24762C45.7584 7.17137 45.9291 7.13229 46.0711 7.13229C46.276 7.13229 46.3532 7.21426 46.378 7.24095C46.4971 7.36866 46.5543 7.61838 46.5343 7.9291L46.4028 10.0098C46.2827 11.9046 47.6371 13.7289 49.4842 14.1654L51.5134 14.6429C51.8546 14.723 52.0929 14.8745 52.1511 15.047C52.2092 15.2205 52.1101 15.4845 51.8861 15.7552L50.5565 17.3612C49.346 18.8233 49.3689 21.0956 50.6079 22.5348L51.969 24.1132C52.1978 24.3791 52.3017 24.6412 52.2473 24.8166C52.193 24.991 51.9566 25.1473 51.6173 25.234L49.5976 25.7516C47.7591 26.2234 46.4409 28.0744 46.5991 29.9663L46.7716 32.0441C46.7974 32.3558 46.7449 32.6084 46.6267 32.737C46.601 32.7647 46.5238 32.8495 46.3094 32.8495C46.1702 32.8495 46.0044 32.8123 45.829 32.7428L43.8903 31.9755C43.4519 31.8011 42.9801 31.7134 42.4883 31.7134C41.0643 31.7134 39.6899 32.4625 38.9874 33.6225L37.9057 35.4048C37.5416 36.0034 37.1069 36.0063 36.7314 35.4163L35.6143 33.6539C34.9052 32.5369 33.548 31.8144 32.1554 31.8144C31.636 31.8144 31.1394 31.9116 30.6791 32.1051L28.7557 32.9115C28.5755 32.9868 28.4049 33.0268 28.2629 33.0268C28.058 33.0268 27.9808 32.9448 27.956 32.9172C27.8368 32.7904 27.7797 32.5397 27.7997 32.23L27.9312 30.1493C28.0513 28.2545 26.6969 26.4302 24.8497 25.9937L22.8205 25.5162C22.4793 25.4361 22.2401 25.2846 22.1819 25.1111C22.1238 24.9376 22.2229 24.6736 22.446 24.4029L23.7765 22.7979C24.987 21.3358 24.9641 19.0635 23.7251 17.6243L22.364 16.0459C22.1362 15.78 22.0323 15.5188 22.0866 15.3435Z" fill="white"/>
<path d="M37.1679 30.3559C42.8343 30.3559 47.4445 25.7466 47.4445 20.0794C47.4445 14.413 42.8343 9.80371 37.1679 9.80371C31.5016 9.80371 26.8914 14.413 26.8914 20.0794C26.8904 25.7466 31.5007 30.3559 37.1679 30.3559ZM37.1679 11.6528C41.8144 11.6528 45.5955 15.4329 45.5955 20.0794C45.5955 24.7258 41.8144 28.5069 37.1679 28.5069C32.5215 28.5069 28.7404 24.7258 28.7404 20.0794C28.7404 15.4329 32.5205 11.6528 37.1679 11.6528Z" fill="white"/>
<path d="M59.2243 39.743C58.66 38.9957 57.0244 37.9425 54.8647 39.3084L47.4007 44.1712L42.9153 46.0441C42.4073 43.7623 39.912 43.2867 38.632 43.3572H30.2979C26.8619 41.3871 19.1482 38.8394 18.7603 38.7136C14.0795 37.4946 11.4927 39.864 10.7274 40.7352L8.70769 41.207C8.70101 41.1736 8.69434 41.1355 8.68767 41.1031C8.57902 40.5379 8.32262 40.1281 7.92517 39.885C7.522 39.6391 7.08166 39.5848 6.34584 39.7401C6.30009 39.7487 1.83947 40.6818 1.83947 40.6818C1.34098 40.7857 1.01978 41.2737 1.12272 41.7732L4.43673 57.8371C4.48725 58.0802 4.63308 58.2927 4.84086 58.4281C4.99145 58.5243 5.16587 58.5748 5.3422 58.5748C5.41083 58.5748 5.4785 58.5672 5.54617 58.552C5.54617 58.552 9.96009 57.554 10.044 57.535C10.8846 57.3444 11.6414 56.3274 11.4012 55.2684C11.3984 55.2522 11.386 55.1912 11.3688 55.1007C13.2369 54.9434 15.5397 54.8739 16.2383 55.1417C16.2736 55.155 16.3098 55.1674 16.347 55.176C16.347 55.176 27.7206 58.0001 27.9046 58.0449C29.2151 58.3127 30.2817 58.4338 31.2481 58.4338C32.9256 58.4338 34.3029 58.0678 36.1367 57.4702C41.3722 55.7622 46.7155 52.9333 46.9404 52.8132C46.9852 52.7894 47.0271 52.7627 47.0672 52.7322L58.2892 44.1674C58.4351 44.0645 59.717 43.1266 59.8781 41.7388C59.9391 41.2308 59.8657 40.4617 59.2243 39.743ZM9.54739 55.7593C9.18425 55.8365 8.30833 56.0329 6.058 56.5409L3.12047 42.3021C4.41195 42.0324 6.64131 41.5663 6.71661 41.5511C6.77952 41.5387 6.8348 41.5272 6.88531 41.5196C7.44003 44.4219 8.19777 48.3793 8.77059 51.3721L9.35867 54.4526C9.35962 54.4573 9.36248 54.4612 9.36344 54.4659C9.50164 55.1874 9.58933 55.6411 9.59505 55.6649C9.60172 55.6926 9.56931 55.7364 9.54739 55.7593ZM58.0433 41.5225C57.99 42.0067 57.419 42.5175 57.1979 42.6767L46.0082 51.2167C45.3801 51.5465 40.34 54.1562 35.5639 55.7136C32.8713 56.5923 31.4597 56.883 28.2744 56.2349L28.2734 56.2435C27.6987 56.091 25.5408 55.5544 16.8407 53.3946C15.5616 52.9457 12.5821 53.1354 11.0181 53.2764C10.8961 52.6388 10.7521 51.8896 10.592 51.0537L9.05939 43.0237L11.4555 42.4642C11.6719 42.4137 11.8682 42.2812 11.9988 42.1001C12.0789 41.9886 14.0175 39.3827 18.238 40.4864C18.32 40.5122 26.4358 43.1924 29.5706 45.0738C29.7146 45.1606 29.8795 45.2054 30.0462 45.2054L38.6854 45.2034C38.7807 45.1977 40.9834 45.0853 41.1425 46.6417C41.1425 46.6446 41.1502 46.8562 41.072 47.1173C41.0596 47.1497 41.0491 47.1821 41.0396 47.2145C40.9843 47.3689 40.8985 47.5319 40.766 47.6759C40.4286 48.0447 39.853 48.2363 39.0666 48.2468H27.6863C27.1754 48.2468 26.7618 48.6604 26.7618 49.1713C26.7618 49.6822 27.1754 50.0958 27.6863 50.0958H39.0781C40.4077 50.0796 41.4351 49.686 42.1319 48.9244C42.3578 48.6766 42.5255 48.4155 42.6494 48.1591L48.1928 45.8449C48.2443 45.823 48.2948 45.7972 48.3415 45.7667L55.8654 40.8648C57.0178 40.1366 57.6078 40.6856 57.7965 40.9134C58.0462 41.1975 58.0567 41.3967 58.0433 41.5225Z" fill="white"/>
<path d="M24.6393 48.2627H23.9702C23.4593 48.2627 23.0457 48.6763 23.0457 49.1872C23.0457 49.6981 23.4593 50.1118 23.9702 50.1118H24.6393C25.1502 50.1118 25.5638 49.6981 25.5638 49.1872C25.5638 48.6763 25.1502 48.2627 24.6393 48.2627Z" fill="white"/>
<path d="M34.1474 21.9445C34.1589 21.9645 34.1808 21.9712 34.1932 21.9902C34.2475 22.0684 34.3133 22.1322 34.3924 22.1866C34.421 22.2056 34.4448 22.2276 34.4763 22.2428C34.5792 22.2952 34.6917 22.3295 34.8146 22.3315C34.8184 22.3315 34.8223 22.3343 34.8261 22.3343C34.828 22.3343 34.8308 22.3334 34.8327 22.3334H39.4506C39.4573 22.3334 39.464 22.3295 39.4706 22.3295C39.483 22.3305 39.4954 22.3343 39.5078 22.3343C39.5793 22.3343 39.6441 22.3 39.7127 22.2809C39.7289 22.2752 39.7471 22.2743 39.7633 22.2676C39.9329 22.2075 40.0892 22.1122 40.1864 21.9454L42.3643 18.2292C42.5178 17.968 42.5073 17.6421 42.3376 17.3914C42.168 17.1417 41.8687 17.013 41.5704 17.055L39.1599 17.4171L37.8341 15.9103C37.6597 15.713 37.41 15.6377 37.1669 15.6615C36.9239 15.6377 36.6742 15.713 36.4998 15.9103L35.174 17.4171L32.7635 17.055C32.4633 17.013 32.1659 17.1417 31.9962 17.3914C31.8266 17.6421 31.8161 17.968 31.9696 18.2292L34.1474 21.9445ZM35.3655 19.0336C35.6315 19.0708 35.8964 18.9755 36.0718 18.7753L37.1669 17.5306L38.2621 18.7753C38.4394 18.9755 38.7072 19.0708 38.9683 19.0336L40.1769 18.8525L39.0579 20.7626H35.275L34.156 18.8525L35.3655 19.0336Z" fill="white"/>
<path d="M39.4516 23.4639H34.8251C34.3915 23.4639 34.0388 23.8156 34.0388 24.2492C34.0388 24.6839 34.3905 25.0346 34.8251 25.0346H39.4516C39.8853 25.0346 40.2379 24.6829 40.2379 24.2492C40.2379 23.8146 39.8853 23.4639 39.4516 23.4639Z" fill="white"/>
</svg>
