<svg width="6" height="11" viewBox="0 0 6 11" fill="none" xmlns="http://www.w3.org/2000/svg">
<path d="M5.22639 0.130394L0.139349 5.16831C0.0500029 5.2568 -9.39879e-07 5.37548 -9.61485e-07 5.49905C-9.83091e-07 5.62262 0.0500028 5.74131 0.139349 5.82979L5.22639 10.8696C5.26801 10.9109 5.31777 10.9437 5.37273 10.9661C5.4277 10.9885 5.48675 11 5.54641 11C5.60607 11 5.66513 10.9885 5.72009 10.9661C5.77506 10.9437 5.82482 10.9109 5.86644 10.8696C5.95206 10.785 6 10.6714 6 10.5531C6 10.4348 5.95206 10.3212 5.86644 10.2366L1.08274 5.49905L5.86644 0.762502C5.95177 0.677919 5.99952 0.564516 5.99952 0.446448C5.99952 0.32838 5.95177 0.214977 5.86644 0.130394C5.82482 0.0891281 5.77506 0.0563296 5.7201 0.0339344C5.66513 0.0115391 5.60607 9.80197e-07 5.54641 9.69766e-07C5.48675 9.59335e-07 5.4277 0.0115391 5.37273 0.0339343C5.31777 0.0563295 5.26801 0.089128 5.22639 0.130394Z" fill="white"/>
</svg>
