<svg width="6" height="11" viewBox="0 0 6 11" fill="none" xmlns="http://www.w3.org/2000/svg">
<path d="M0.773611 10.8696L5.86065 5.83169C5.95 5.7432 6 5.62452 6 5.50095C6 5.37738 5.95 5.25869 5.86065 5.17021L0.773612 0.130393C0.731992 0.0891271 0.682232 0.0563283 0.627267 0.0339332C0.572302 0.011538 0.513247 4.74007e-07 0.453586 4.68791e-07C0.393926 4.63576e-07 0.33487 0.011538 0.279905 0.0339331C0.224939 0.0563283 0.175179 0.089127 0.13356 0.130393C0.047936 0.215019 -2.0753e-08 0.328623 -3.10949e-08 0.446921C-4.14368e-08 0.565218 0.0479359 0.678822 0.13356 0.763449L4.91726 5.50095L0.133559 10.2375C0.0482288 10.3221 0.000478794 10.4355 0.000478784 10.5536C0.000478773 10.6716 0.0482288 10.785 0.133559 10.8696C0.175178 10.9109 0.224938 10.9437 0.279904 10.9661C0.334869 10.9885 0.393925 11 0.453585 11C0.513246 11 0.572301 10.9885 0.627266 10.9661C0.682231 10.9437 0.731991 10.9109 0.773611 10.8696Z" fill="white"/>
</svg>
