<svg width="11" height="19" viewBox="0 0 11 19" fill="none" xmlns="http://www.w3.org/2000/svg">
<path d="M1.41829 18.7748L10.7445 10.0729C10.9083 9.92008 11 9.71508 11 9.50164C11 9.2882 10.9083 9.0832 10.7445 8.93035L1.41829 0.225225C1.34199 0.153947 1.25076 0.0972949 1.14999 0.058612C1.04922 0.019929 0.940951 1.02796e-06 0.831574 1.0184e-06C0.722197 1.00883e-06 0.613928 0.019929 0.513158 0.0586119C0.412389 0.0972948 0.321161 0.153947 0.244859 0.225225C0.0878818 0.371396 -2.95939e-07 0.567624 -3.13802e-07 0.771955C-3.31666e-07 0.976287 0.0878817 1.17251 0.244859 1.31868L9.01498 9.50164L0.244858 17.683C0.0884191 17.829 0.000876512 18.0249 0.000876494 18.2289C0.000876476 18.4328 0.088419 18.6287 0.244858 18.7748C0.321159 18.8461 0.412387 18.9027 0.513156 18.9414C0.613926 18.9801 0.722196 19 0.831573 19C0.940949 19 1.04922 18.9801 1.14999 18.9414C1.25076 18.9027 1.34198 18.8461 1.41829 18.7748Z" fill="#61B5F1"/>
</svg>
