<svg width="45" height="40" viewBox="0 0 45 40" fill="none" xmlns="http://www.w3.org/2000/svg">
<path d="M42.6994 14.4767C41.8202 13.4635 40.7335 12.651 39.513 12.0943C38.2924 11.5375 36.9665 11.2496 35.625 11.2499H28.1456L28.7756 7.42298C28.9985 6.07534 28.7296 4.69248 28.0179 3.52661C27.3061 2.36075 26.199 1.48956 24.8985 1.07196C23.5979 0.654361 22.1906 0.718167 20.9332 1.25174C19.6758 1.78532 18.6521 2.75311 18.0488 3.9786L15 10.1567V39.3749H34.3125C36.569 39.3656 38.7472 38.5467 40.4509 37.067C42.1545 35.5874 43.2705 33.5453 43.5956 31.3124L44.9175 21.9374C45.1044 20.6075 45.0031 19.2529 44.6203 17.9657C44.2376 16.6784 43.5825 15.4885 42.6994 14.4767Z" fill="white"/>
<path d="M0 20.625V30C0.00297723 32.4855 0.991654 34.8683 2.74916 36.6258C4.50667 38.3833 6.88951 39.372 9.375 39.375H11.25V11.25H9.375C6.88951 11.253 4.50667 12.2417 2.74916 13.9992C0.991654 15.7567 0.00297723 18.1395 0 20.625Z" fill="white"/>
</svg>
