<svg width="26" height="26" viewBox="0 0 26 26" fill="none" xmlns="http://www.w3.org/2000/svg">
<path d="M24.9125 23.5876C25.0046 23.6734 25.0785 23.7769 25.1297 23.8919C25.181 24.0069 25.2085 24.131 25.2107 24.2569C25.213 24.3828 25.1898 24.5078 25.1426 24.6245C25.0955 24.7413 25.0253 24.8473 24.9363 24.9364C24.8473 25.0254 24.7412 25.0956 24.6245 25.1427C24.5078 25.1899 24.3827 25.213 24.2568 25.2108C24.131 25.2086 24.0068 25.181 23.8918 25.1298C23.7768 25.0785 23.6733 25.0047 23.5875 24.9126L13 14.3266L2.41249 24.9126C2.23477 25.0782 1.99971 25.1683 1.75684 25.164C1.51396 25.1597 1.28223 25.0613 1.11046 24.8896C0.938697 24.7178 0.840308 24.4861 0.836023 24.2432C0.831737 24.0003 0.921891 23.7653 1.08749 23.5876L11.6734 13.0001L1.08749 2.41255C0.921891 2.23483 0.831737 1.99978 0.836023 1.7569C0.840308 1.51402 0.938697 1.28229 1.11046 1.11052C1.28223 0.938759 1.51396 0.840369 1.75684 0.836084C1.99971 0.831798 2.23477 0.921952 2.41249 1.08755L13 11.6735L23.5875 1.08755C23.7652 0.921952 24.0003 0.831798 24.2431 0.836084C24.486 0.840369 24.7178 0.938759 24.8895 1.11052C25.0613 1.28229 25.1597 1.51402 25.164 1.7569C25.1682 1.99978 25.0781 2.23483 24.9125 2.41255L14.3266 13.0001L24.9125 23.5876Z" fill="white"/>
</svg>
