<svg width="28" height="28" viewBox="0 0 28 28" fill="none" xmlns="http://www.w3.org/2000/svg">
<path d="M10.1828 3.81719C10.1828 5.92536 11.8918 7.63438 14 7.63438C16.1082 7.63438 17.8172 5.92536 17.8172 3.81719C17.8172 1.70901 16.1082 0 14 0C11.8918 0 10.1828 1.70901 10.1828 3.81719ZM24.1828 0C22.0746 0 20.3656 1.70901 20.3656 3.81719C20.3656 5.92536 22.0746 7.63438 24.1828 7.63438C26.291 7.63438 28 5.92536 28 3.81719C28 1.70901 26.291 0 24.1828 0ZM0 3.81719C0 5.92536 1.70901 7.63438 3.81719 7.63438C5.92536 7.63438 7.63438 5.92536 7.63438 3.81719C7.63438 1.70901 5.92536 0 3.81719 0C1.70901 0 0 1.70901 0 3.81719ZM10.1828 14C10.1828 16.1082 11.8918 17.8172 14 17.8172C16.1082 17.8172 17.8172 16.1082 17.8172 14C17.8172 11.8918 16.1082 10.1828 14 10.1828C11.8918 10.1828 10.1828 11.8918 10.1828 14ZM20.3656 14C20.3656 16.1082 22.0746 17.8172 24.1828 17.8172C26.291 17.8172 28 16.1082 28 14C28 11.8918 26.291 10.1828 24.1828 10.1828C22.0746 10.1828 20.3656 11.8918 20.3656 14ZM0 14C0 16.1082 1.70901 17.8172 3.81719 17.8172C5.92536 17.8172 7.63438 16.1082 7.63438 14C7.63438 11.8918 5.92536 10.1828 3.81719 10.1828C1.70901 10.1828 0 11.8918 0 14ZM10.1828 24.1828C10.1828 26.291 11.8918 28 14 28C16.1082 28 17.8172 26.291 17.8172 24.1828C17.8172 22.0746 16.1082 20.3656 14 20.3656C11.8918 20.3656 10.1828 22.0746 10.1828 24.1828ZM20.3656 24.1828C20.3656 26.291 22.0746 28 24.1828 28C26.291 28 28 26.291 28 24.1828C28 22.0746 26.291 20.3656 24.1828 20.3656C22.0746 20.3656 20.3656 22.0746 20.3656 24.1828ZM0 24.1828C0 26.291 1.70901 28 3.81719 28C5.92536 28 7.63438 26.291 7.63438 24.1828C7.63438 22.0746 5.92536 20.3656 3.81719 20.3656C1.70901 20.3656 0 22.0746 0 24.1828Z" fill="white"/>
</svg>
