<?xml version="1.0" encoding="utf-8"?>
<!-- Generator: Adobe Illustrator 26.1.0, SVG Export Plug-In . SVG Version: 6.00 Build 0)  -->
<svg version="1.1" id="Слой_1" xmlns="http://www.w3.org/2000/svg" xmlns:xlink="http://www.w3.org/1999/xlink" x="0px" y="0px"
	 viewBox="0 0 30 27" style="enable-background:new 0 0 30 27;" xml:space="preserve">
<style type="text/css">
	.st0{fill:#519EF5;}
</style>
<g>
	<path class="st0" d="M26,26.8H3.7c-2,0-3.7-1.8-3.7-4V4.9c0-2.2,1.6-4,3.7-4H26c2,0,3.7,1.8,3.7,4v17.9C29.6,25,28,26.8,26,26.8z
		 M3.7,2.9C2.7,2.9,2,3.8,2,4.9v17.9c0,1.1,0.7,2,1.7,2H26c0.9,0,1.7-0.9,1.7-2V4.9c0-1.1-0.7-2-1.7-2H3.7z"/>
</g>
<g>
	<path class="st0" d="M14.8,16.1c-0.2,0-0.5-0.1-0.7-0.2L4.6,7.5C4.2,7.1,4.1,6.5,4.5,6c0.4-0.4,1-0.5,1.4-0.1l8.9,7.8l8.9-7.8
		c0.4-0.4,1-0.3,1.4,0.1c0.4,0.4,0.3,1-0.1,1.4l-9.6,8.4C15.3,16,15,16.1,14.8,16.1z"/>
</g>
</svg>
