<svg width="21" height="20" viewBox="0 0 21 20" fill="none" xmlns="http://www.w3.org/2000/svg">
<path d="M9.36251 1.75029C8.64659 0.228038 6.83218 -0.425587 5.30997 0.290341C4.66815 0.592216 4.15185 1.10852 3.85001 1.75029H1.3125C0.587631 1.75029 0 2.33792 0 3.06279C0 3.78766 0.587631 4.37529 1.3125 4.37529H3.84563C4.56155 5.89755 6.37596 6.55117 7.89817 5.83524C8.53995 5.53341 9.05625 5.01706 9.35812 4.37529H19.6875C20.4124 4.37529 21 3.78766 21 3.06279C21 2.33792 20.4124 1.75029 19.6875 1.75029H9.36251Z" fill="#787878"/>
<path d="M14.3981 6.89111C13.2183 6.89321 12.1451 7.57439 11.641 8.64113H1.3125C0.587631 8.64113 0 9.22876 0 9.95363C0 10.6785 0.587631 11.2661 1.3125 11.2661H11.6375C12.3534 12.7884 14.1678 13.442 15.69 12.7261C16.3318 12.4242 16.8481 11.9079 17.15 11.2661H19.6875C20.4124 11.2661 21 10.6785 21 9.95363C21 9.22876 20.4124 8.64113 19.6875 8.64113H17.1544C16.6504 7.57468 15.5777 6.89357 14.3981 6.89111Z" fill="#787878"/>
<path d="M6.60188 13.7817C5.42235 13.7842 4.34958 14.4653 3.84563 15.5318H1.3125C0.587631 15.5318 0 16.1194 0 16.8443C0 17.5691 0.587631 18.1568 1.3125 18.1568H3.84563C4.56155 19.679 6.37596 20.3326 7.89817 19.6167C8.53995 19.3149 9.05625 18.7985 9.35812 18.1568H19.6875C20.4124 18.1568 21 17.5691 21 16.8443C21 16.1194 20.4124 15.5318 19.6875 15.5318H9.36251C8.85786 14.4639 7.78296 13.7825 6.60188 13.7817Z" fill="#787878"/>
</svg>
