<svg width="39" height="45" viewBox="0 0 39 45" fill="none" xmlns="http://www.w3.org/2000/svg">
<path d="M34.395 4.95396L19.5 0.0170898L4.605 4.95396C3.48276 5.32599 2.50628 6.04217 1.81425 7.00078C1.12223 7.95938 0.749845 9.11167 0.75 10.294V22.5002C0.75 36.6077 18 44.3983 18.7388 44.7227L19.4025 45.0171L20.0925 44.7883C20.835 44.5408 38.25 38.5821 38.25 22.5002V10.294C38.2502 9.11167 37.8778 7.95938 37.1857 7.00078C36.4937 6.04217 35.5172 5.32599 34.395 4.95396ZM20.3325 26.2296C20.0047 26.5596 19.6147 26.8211 19.185 26.9991C18.7553 27.1771 18.2945 27.268 17.8294 27.2665H17.7675C17.2929 27.2592 16.8247 27.1558 16.3913 26.9624C15.9578 26.769 15.5681 26.4898 15.2456 26.1415L10.9219 21.6415L13.6275 19.0502L17.835 23.4377L27.5494 13.7233L30.2006 16.3746L20.3325 26.2296Z" fill="white"/>
</svg>
