<svg width="7" height="11" viewBox="0 0 7 11" fill="none" xmlns="http://www.w3.org/2000/svg">
<path d="M3.208 0.327999C4.49867 0.327999 5.44267 0.626666 6.04 1.224C6.59467 1.77867 6.872 2.49333 6.872 3.368C6.872 4.21067 6.60533 4.888 6.072 5.4C5.464 5.99733 4.60533 6.296 3.496 6.296H2.456V7.704H5.08V8.6H2.456V11H1.272V8.6H0.056V7.704H1.272V6.296H0.056V5.24H1.272V0.327999H3.208ZM2.456 1.448V5.24H3.432C4.232 5.24 4.82933 5.032 5.224 4.616C5.53333 4.27467 5.688 3.82667 5.688 3.272C5.688 2.76 5.53867 2.35467 5.24 2.056C4.84533 1.65067 4.21067 1.448 3.336 1.448H2.456Z" fill="#B3B1B1"/>
</svg>
