<svg width="22" height="22" viewBox="0 0 22 22" fill="none" xmlns="http://www.w3.org/2000/svg">
<path d="M20.9371 21.8165C21.5063 22.3825 22.3848 21.5089 21.8156 20.9552L17.1753 16.3285C18.803 14.5376 19.7028 12.2087 19.6996 9.79466C19.6996 4.39283 15.2821 0 9.84982 0C4.41757 0 0 4.39283 0 9.79466C0 15.1965 4.41757 19.5893 9.84982 19.5893C12.2999 19.5893 14.5644 18.6911 16.2968 17.2022L20.9371 21.8165ZM1.23618 9.79466C1.23618 5.0696 5.10928 1.23049 9.84858 1.23049C14.6003 1.23049 18.461 5.0696 18.461 9.79466C18.461 14.5197 14.6003 18.3588 9.84858 18.3588C5.10928 18.3588 1.23618 14.5197 1.23618 9.79466Z" fill="#BDBDBD"/>
</svg>
