<svg width="25" height="25" viewBox="0 0 25 25" fill="none" xmlns="http://www.w3.org/2000/svg">
<g clip-path="url(#clip0_123_1385)">
<path d="M13.5417 1.04187C13.5417 0.765598 13.6515 0.500646 13.8468 0.305296C14.0422 0.109945 14.3071 0.000198664 14.5834 0.000198664C17.3451 0.00323158 19.9929 1.10167 21.9457 3.05452C23.8986 5.00737 24.997 7.65512 25.0001 10.4169C25.0001 10.6931 24.8903 10.9581 24.695 11.1534C24.4996 11.3488 24.2347 11.4585 23.9584 11.4585C23.6821 11.4585 23.4172 11.3488 23.2218 11.1534C23.0265 10.9581 22.9167 10.6931 22.9167 10.4169C22.9143 8.20749 22.0355 6.08931 20.4732 4.52705C18.9109 2.96478 16.7928 2.08601 14.5834 2.08353C14.3071 2.08353 14.0422 1.97379 13.8468 1.77843C13.6515 1.58308 13.5417 1.31813 13.5417 1.04187ZM14.5834 6.2502C15.6885 6.2502 16.7483 6.68919 17.5297 7.47059C18.3111 8.25199 18.7501 9.3118 18.7501 10.4169C18.7501 10.6931 18.8598 10.9581 19.0552 11.1534C19.2505 11.3488 19.5155 11.4585 19.7917 11.4585C20.068 11.4585 20.333 11.3488 20.5283 11.1534C20.7237 10.9581 20.8334 10.6931 20.8334 10.4169C20.8317 8.75977 20.1727 7.17102 19.001 5.99928C17.8292 4.82753 16.2405 4.16852 14.5834 4.16687C14.3071 4.16687 14.0422 4.27661 13.8468 4.47196C13.6515 4.66731 13.5417 4.93226 13.5417 5.20853C13.5417 5.4848 13.6515 5.74975 13.8468 5.9451C14.0422 6.14045 14.3071 6.2502 14.5834 6.2502ZM24.0553 17.4367C24.6589 18.042 24.9979 18.862 24.9979 19.7169C24.9979 20.5717 24.6589 21.3917 24.0553 21.9971L23.1074 23.0898C14.5761 31.2575 -6.18431 10.5023 1.85736 1.94395L3.05528 0.902282C3.66128 0.315487 4.47395 -0.00912521 5.31747 -0.00132754C6.16098 0.00647013 6.96751 0.346051 7.56257 0.943949C7.59486 0.97624 9.52507 3.48353 9.52507 3.48353C10.0978 4.08523 10.4166 4.8845 10.4153 5.7152C10.4139 6.5459 10.0925 7.34413 9.51778 7.94395L8.31153 9.46062C8.97908 11.0826 9.96055 12.5567 11.1996 13.7982C12.4386 15.0397 13.9107 16.0242 15.5313 16.695L17.0574 15.4814C17.6573 14.9072 18.4553 14.5861 19.2858 14.585C20.1162 14.5838 20.9152 14.9026 21.5167 15.4752C21.5167 15.4752 24.023 17.4044 24.0553 17.4367ZM22.6219 18.9512C22.6219 18.9512 20.1292 17.0335 20.0969 17.0012C19.8823 16.7885 19.5924 16.6691 19.2902 16.6691C18.988 16.6691 18.698 16.7885 18.4834 17.0012C18.4553 17.0304 16.3542 18.7044 16.3542 18.7044C16.2126 18.8171 16.0441 18.8909 15.8653 18.9187C15.6865 18.9465 15.5035 18.9272 15.3344 18.8627C13.2349 18.081 11.3279 16.8572 9.7426 15.2742C8.15729 13.6913 6.93069 11.7861 6.1459 9.6877C6.07631 9.5163 6.05363 9.32946 6.08017 9.14638C6.10672 8.96331 6.18154 8.79061 6.29694 8.64603C6.29694 8.64603 7.9709 6.54395 7.99903 6.51687C8.2118 6.30227 8.33119 6.0123 8.33119 5.71009C8.33119 5.40789 8.2118 5.11792 7.99903 4.90332C7.96673 4.87207 6.04903 2.37728 6.04903 2.37728C5.83121 2.18198 5.54695 2.07738 5.25449 2.08493C4.96204 2.09249 4.68355 2.21162 4.47611 2.41791L3.27819 3.45957C-2.59889 10.5262 15.3917 27.5189 21.5844 21.6669L22.5334 20.5731C22.7558 20.3671 22.8893 20.0828 22.9059 19.7801C22.9224 19.4774 22.8206 19.1802 22.6219 18.9512Z" fill="#519EF5"/>
</g>
<defs>
<clipPath id="clip0_123_1385">
<rect width="25" height="25" fill="white"/>
</clipPath>
</defs>
</svg>
