<svg width="75" height="53" viewBox="0 0 75 53" fill="none" xmlns="http://www.w3.org/2000/svg"><path d="M57.273 36.333a.995.995 0 0 1-.721-.302l-7.286-7.286a1.023 1.023 0 0 1 1.447-1.447l7.285 7.286a1.023 1.023 0 0 1-.725 1.749z" fill="#fff"/><path d="M48.462 52.794a26.19 26.19 0 0 1-18.594-7.7 26.198 26.198 0 0 1-7.7-18.594 26.19 26.19 0 0 1 7.7-18.594 26.2 26.2 0 0 1 18.595-7.7 26.19 26.19 0 0 1 18.594 7.7 26.198 26.198 0 0 1 7.7 18.594 26.19 26.19 0 0 1-7.7 18.594 26.2 26.2 0 0 1-18.595 7.7zm0-50.542c-13.368 0-24.248 10.875-24.248 24.248 0 13.368 10.875 24.248 24.248 24.248 13.369 0 24.249-10.875 24.249-24.248 0-13.369-10.875-24.248-24.248-24.248z" fill="#fff"/><path d="M30.078 10.185H14.99a1.023 1.023 0 1 1 0-2.045h15.088a1.023 1.023 0 1 1 0 2.045zM24.72 18.854H8.42a1.023 1.023 0 1 1 0-2.045h16.3a1.023 1.023 0 1 1 0 2.045zM23.192 27.523H10.008a1.023 1.023 0 1 1 0-2.046h13.188a1.023 1.023 0 1 1-.005 2.046zM4.88 27.523H1.266a1.023 1.023 0 1 1 0-2.046H4.88a1.023 1.023 0 1 1 0 2.046zM24.72 36.192H8.42a1.023 1.023 0 1 1 0-2.045h16.3a1.023 1.023 0 1 1 0 2.045zM30.078 44.86H14.99a1.023 1.023 0 1 1 0-2.045h15.088a1.023 1.023 0 1 1 0 2.046zM48.462 48.318c-2.946 0-5.8-.575-8.493-1.714a21.808 21.808 0 0 1-6.935-4.676 21.754 21.754 0 0 1-6.39-15.428c0-2.947.575-5.8 1.715-8.494a21.808 21.808 0 0 1 4.675-6.935 21.754 21.754 0 0 1 15.428-6.39c2.947 0 5.8.575 8.494 1.715a21.808 21.808 0 0 1 6.935 4.675 21.755 21.755 0 0 1 6.39 15.429c0 2.946-.575 5.8-1.715 8.493a21.809 21.809 0 0 1-4.675 6.935 21.755 21.755 0 0 1-15.428 6.39zm0-41.59c-10.899 0-19.772 8.868-19.772 19.772 0 10.904 8.868 19.773 19.772 19.773 10.905 0 19.773-8.869 19.773-19.773S59.367 6.727 48.462 6.727z" fill="#fff"/><path d="M48.462 29.646a3.15 3.15 0 0 1-3.146-3.146 3.151 3.151 0 0 1 3.146-3.146A3.151 3.151 0 0 1 51.61 26.5a3.145 3.145 0 0 1-3.147 3.146zm0-4.247c-.608 0-1.1.497-1.1 1.1 0 .605.497 1.101 1.1 1.101.604 0 1.101-.497 1.101-1.1 0-.604-.492-1.101-1.1-1.101z" fill="#fff"/><path d="M48.463 25.414a1.023 1.023 0 0 1-1.023-1.023v-8.045a1.023 1.023 0 1 1 2.045 0v8.045c0 .565-.457 1.023-1.022 1.023zM48.463 9.883A1.023 1.023 0 0 1 47.44 8.86V5.704a1.023 1.023 0 1 1 2.045 0V8.86c0 .565-.457 1.023-1.022 1.023zM35.99 15.05a.995.995 0 0 1-.72-.302l-2.231-2.23a1.023 1.023 0 0 1 1.446-1.447l2.23 2.23c.4.4.4 1.048 0 1.447-.199.205-.462.302-.725.302zM30.828 27.523h-3.156a1.023 1.023 0 1 1 0-2.046h3.156a1.023 1.023 0 1 1 0 2.046zM33.76 42.226a.994.994 0 0 1-.721-.302c-.4-.4-.4-1.047 0-1.447l2.23-2.23a1.023 1.023 0 0 1 1.447 1.446l-2.23 2.23c-.2.205-.463.303-.726.303zM48.463 48.319a1.023 1.023 0 0 1-1.023-1.023V44.14a1.023 1.023 0 1 1 2.045 0v3.156c0 .565-.457 1.023-1.022 1.023zM63.166 42.226a.995.995 0 0 1-.721-.302l-2.23-2.23a1.023 1.023 0 0 1 1.446-1.447l2.23 2.23c.4.4.4 1.047 0 1.447-.2.204-.462.302-.725.302zM69.258 27.523h-3.156a1.023 1.023 0 1 1 0-2.046h3.156a1.023 1.023 0 1 1 0 2.046zM60.935 15.05c-.263 0-.521-.102-.72-.302-.4-.4-.4-1.047 0-1.446l2.23-2.231a1.023 1.023 0 0 1 1.446 1.446l-2.23 2.23c-.2.206-.463.303-.726.303z" fill="#fff"/></svg>