<svg width="57" height="57" viewBox="0 0 57 57" fill="none" xmlns="http://www.w3.org/2000/svg"><path d="M45.928 15.424c2.88 0 5.221-2.34 5.221-5.221 0-2.881-2.34-5.222-5.22-5.222a5.225 5.225 0 0 0-5.222 5.222c0 2.88 2.34 5.22 5.221 5.22zm0-8.642a3.427 3.427 0 0 1 3.42 3.42 3.427 3.427 0 0 1-3.42 3.421 3.427 3.427 0 0 1-3.42-3.42 3.427 3.427 0 0 1 3.42-3.421zM32.09 16.192l-7.406 6.697-.829-.924a.896.896 0 0 0-1.272-.06.895.895 0 0 0-.06 1.272l.828.924-1.152 1.044-.828-.924a.896.896 0 0 0-1.272-.06.896.896 0 0 0-.06 1.272l.828.925-3.48 3.132a.895.895 0 0 0-.06 1.273c.335.372.9.396 1.271.06l3.481-3.133 3.829 4.237c.336.372.9.396 1.272.06a.896.896 0 0 0 .06-1.272l-3.829-4.237 1.153-1.045 2.016 2.233c2.233 2.46 6.133 2.58 8.714.252 2.58-2.328 2.893-6.17.72-8.738l-.024-.024-2.629-2.904a.896.896 0 0 0-1.272-.06zm2.556 4.164c1.536 1.825 1.284 4.55-.564 6.218-1.837 1.656-4.61 1.608-6.17-.12l-2.016-2.233 6.745-6.085 2.005 2.22z" fill="#fff"/><path d="M55.206 0H32.833a.89.89 0 0 0-.588.216L1.207 26.934a.884.884 0 0 0-.312.648.886.886 0 0 0 .264.672L23.53 50.231a.93.93 0 0 0 .637.252c.204 0 .42-.072.588-.204l31.038-26.634a.919.919 0 0 0 .312-.684V.9c0-.493-.408-.901-.9-.901zm-.888 22.54L24.216 48.359 3.127 27.654 33.181 1.788h21.137v20.753z" fill="#fff"/><path d="M54.618 28.794L24.215 54.875 2.431 33.115a.906.906 0 0 0-1.272 0 .905.905 0 0 0 0 1.272L23.53 56.736a.89.89 0 0 0 .636.264c.204 0 .42-.072.588-.204l31.039-26.634c.372-.324.42-.9.096-1.272a.908.908 0 0 0-1.272-.096z" fill="#fff"/></svg>