<svg width="61" height="61" viewBox="0 0 61 61" fill="none" xmlns="http://www.w3.org/2000/svg"><g clip-path="url(#a)" fill="#fff"><path d="M14.168 15.315l-1.09-1.992a2.16 2.16 0 0 0-3.789 0L8.2 15.315l-1.992 1.09a2.161 2.161 0 0 0 0 3.79l1.991 1.09 1.091 1.997a2.16 2.16 0 0 0 3.788 0l1.091-1.992 1.997-1.095a2.161 2.161 0 0 0 0-3.79l-1.997-1.09zm1.017 3.096c-2.153 1.186-2.447 1.251-2.659 1.637L11.294 22.3a.243.243 0 0 1-.222 0c-1.334-2.422-1.288-2.468-1.636-2.658-2.455-1.343-2.32-1.235-2.32-1.343 0-.108-.117-.011 2.32-1.343.354-.194.312-.255 1.636-2.658a.126.126 0 0 1 .222 0c1.37 2.402 1.288 2.468 1.637 2.658 2.454 1.343 2.319 1.235 2.319 1.343a.117.117 0 0 1-.065.11zM27.557 22.228l1.991 1.09 1.091 1.997a2.16 2.16 0 0 0 3.788 0l1.091-1.992 1.997-1.095a2.161 2.161 0 0 0 0-3.79l-1.992-1.09-1.09-1.991a2.16 2.16 0 0 0-3.789 0l-1.09 1.991-1.992 1.09a2.16 2.16 0 0 0-.005 3.79zm.975-2.006c2.153-1.186 2.447-1.251 2.658-1.637 1.326-2.42 1.23-2.319 1.343-2.319.113 0 .01-.116 1.343 2.32.195.354.25.305 2.659 1.636a.126.126 0 0 1 .048.176.126.126 0 0 1-.048.046c-2.153 1.186-2.447 1.252-2.659 1.637l-1.232 2.253a.243.243 0 0 1-.222 0c-1.334-2.422-1.288-2.468-1.636-2.658-2.455-1.343-2.32-1.235-2.32-1.343a.118.118 0 0 1 .066-.11zM20.68 13.948a2.503 2.503 0 0 0 4.39 0l1.465-2.663L29.2 9.82a2.506 2.506 0 0 0 0-4.392l-2.665-1.46-1.465-2.668a2.503 2.503 0 0 0-4.39 0L19.22 3.97l-2.67 1.459a2.506 2.506 0 0 0 0 4.392l2.67 1.464 1.46 2.663zm-3.154-6.73l2.93-1.602c.35-.19.247-.116 2.007-3.334a.469.469 0 0 1 .824 0c1.71 3.116 1.649 3.139 2.007 3.334l2.929 1.602a.47.47 0 0 1 0 .823l-2.93 1.598c-.348.19-.246.116-2.006 3.333a.468.468 0 0 1-.824 0c-1.706-3.119-1.649-3.138-2.007-3.333l-2.929-1.603a.468.468 0 0 1 0-.818z"/><path d="M58.967 15.25h-12.2a2.033 2.033 0 0 0-2.034 2.033v17.284h-42.7A2.033 2.033 0 0 0 0 36.6v22.367A2.034 2.034 0 0 0 2.033 61h56.934A2.033 2.033 0 0 0 61 58.967V17.283a2.033 2.033 0 0 0-2.033-2.033zm0 2.033v12.2h-12.2v-12.2h12.2zM24.4 46.767h9.15v12.2H24.4v-12.2zm11.183 0h9.15v12.2h-9.15v-12.2zm9.15-2.034H24.4V36.6h20.333v8.133zM22.367 36.6v6.1H2.033v-6.1h20.334zM2.033 44.733h20.334v14.234H2.033V44.733zm44.734 14.234v-27.45h12.2v27.45h-12.2z"/><path d="M6.1 40.667a1.017 1.017 0 1 0 0-2.033 1.017 1.017 0 0 0 0 2.033zM12.2 40.667a1.017 1.017 0 1 0 0-2.033 1.017 1.017 0 0 0 0 2.033zM18.3 40.667a1.017 1.017 0 1 0 0-2.033 1.017 1.017 0 0 0 0 2.033zM18.3 46.767H6.1A2.033 2.033 0 0 0 4.067 48.8v6.1A2.033 2.033 0 0 0 6.1 56.933h12.2a2.034 2.034 0 0 0 2.033-2.033v-6.1a2.034 2.034 0 0 0-2.033-2.033zM6.1 54.9v-6.1h12.2v6.1H6.1zM49.817 26.433a1.017 1.017 0 0 0 1.016-1.017v-2.033a1.016 1.016 0 1 0-2.033 0v2.033a1.017 1.017 0 0 0 1.017 1.017zM49.817 34.566a1.017 1.017 0 0 0-1.017 1.017v2.033a1.017 1.017 0 0 0 2.033 0v-2.033a1.016 1.016 0 0 0-1.016-1.017zM38.633 48.8a1.016 1.016 0 0 0-1.016 1.017v2.033a1.017 1.017 0 0 0 2.033 0v-2.034a1.017 1.017 0 0 0-1.017-1.016zM30.5 48.8a1.016 1.016 0 0 0-1.017 1.017v2.033a1.017 1.017 0 0 0 2.034 0v-2.034A1.017 1.017 0 0 0 30.5 48.8z"/></g><defs><clipPath id="a"><path fill="#fff" d="M0 0h61v61H0z"/></clipPath></defs></svg>