<svg width="61" height="61" viewBox="0 0 61 61" fill="none" xmlns="http://www.w3.org/2000/svg"><path d="M39.907 16.418H10.695a.897.897 0 1 0 0 1.795h29.212a.897.897 0 1 0 0-1.795zM10.694 11.988H25.3a.897.897 0 1 0 0-1.795H10.694a.897.897 0 1 0 0 1.795zM39.907 21.934H10.695a.897.897 0 1 0 0 1.794h29.212a.897.897 0 1 0 0-1.794z" fill="#fff"/><path d="M17.349 54.765H8a2.786 2.786 0 0 1-2.783-2.783V4.578A2.786 2.786 0 0 1 8 1.795h26.933c.087 0 .172.008.257.019v5.597a4.583 4.583 0 0 0 4.578 4.577h5.596c.012.085.02.17.02.258v15.28a.897.897 0 1 0 1.794 0v-15.28c0-.985-.383-1.91-1.08-2.606l-8.56-8.56A3.66 3.66 0 0 0 34.934 0H8a4.583 4.583 0 0 0-4.577 4.577v47.405A4.583 4.583 0 0 0 8 56.56h9.349a.897.897 0 1 0 0-1.795zm26.765-44.572h-4.346a2.786 2.786 0 0 1-2.783-2.782V3.064l7.13 7.13z" fill="#fff"/><path d="M57.302 43.93l-7.604-12.833a1.967 1.967 0 0 0-2.696-.69l-1.85 1.095a3.513 3.513 0 0 0-1.549 4.097 2.75 2.75 0 0 1-1.935-.021c-1.46-.46-2.57-1.384-4.404-.92-3.113.792-3.019.753-3.3.85-1.823-1.039-2.919-1.347-4.854-.599l-1.725.667a2.76 2.76 0 0 1-2.416-.202l-.471-.277a3.506 3.506 0 0 0-1.673-3.595l-1.85-1.095a1.97 1.97 0 0 0-2.696.69L10.676 43.93a1.967 1.967 0 0 0 .69 2.696l1.85 1.095c.559.332 1.174.49 1.782.49.677 0 1.345-.197 1.916-.567l.386.228-.814 1.133a3.007 3.007 0 0 0 2.91 4.725 3 3 0 0 0 1.21 1.937c.627.45 1.409.656 2.222.528a3.006 3.006 0 0 0 4.15 2.257 2.99 2.99 0 0 0 1.05 1.359 3.012 3.012 0 0 0 4.062-.514l2.163 1.28a3.008 3.008 0 0 0 4.123-1.055c.217-.366.351-.764.4-1.174l.005.003a3.013 3.013 0 0 0 4.535-2.367 3.015 3.015 0 0 0 3.729-2.603 3.015 3.015 0 0 0 3.687-1.268 2.99 2.99 0 0 0 .326-2.28 2.997 2.997 0 0 0-.611-1.192l1.192-.696a3.5 3.5 0 0 0 3.123-.224l1.849-1.095a1.966 1.966 0 0 0 .69-2.696zM14.13 46.179l-1.85-1.095a.174.174 0 0 1-.06-.238l7.603-12.834a.174.174 0 0 1 .238-.06l1.85 1.095a1.713 1.713 0 0 1 .6 2.347l-6.034 10.185a1.715 1.715 0 0 1-2.347.6zm4.092 5.57a1.213 1.213 0 0 1-.278-1.695l1.196-1.666a1.218 1.218 0 0 1 1.694-.278c.544.39.669 1.15.279 1.694l-1.197 1.666c-.39.544-1.15.669-1.694.278zm3.43 2.462a1.216 1.216 0 0 1-.278-1.694l1.196-1.666 1.32-1.839a1.206 1.206 0 0 1 .99-.506c.251 0 .496.078.705.228.263.19.437.47.49.79.052.32-.023.64-.212.904l-2.516 3.505c-.391.545-1.15.67-1.695.278zm3.431 2.463a1.216 1.216 0 0 1-.279-1.694l2.517-3.505a1.216 1.216 0 0 1 1.694-.278c.544.39.669 1.15.279 1.694l-1.118 1.557-1.398 1.948c-.39.544-1.15.669-1.695.278zm3.992 1.681a1.216 1.216 0 0 1-.279-1.694l.838-1.166a1.216 1.216 0 0 1 1.694-.278c.544.39.669 1.15.278 1.694l-.837 1.166c-.39.544-1.15.669-1.694.278zm20.113-7.155a1.216 1.216 0 0 1-1.664.426l-7.943-4.705a.897.897 0 1 0-.915 1.544l6.005 3.557a1.214 1.214 0 1 1-1.238 2.09c-2.221-1.315-4.025-2.383-6.008-3.559a.897.897 0 1 0-.915 1.544l4.425 2.621v.001a1.214 1.214 0 1 1-1.239 2.09L37.322 55.4h-.001-.001l-1.733-1.027a.897.897 0 1 0-.915 1.543l1.734 1.027a1.214 1.214 0 1 1-1.238 2.091l-2.022-1.198a3.012 3.012 0 0 0-.771-4.079 2.99 2.99 0 0 0-1.25-.52 3.014 3.014 0 0 0-1.063-3.5 2.998 2.998 0 0 0-2.22-.526 2.987 2.987 0 0 0-1.21-1.936 3.014 3.014 0 0 0-3.894.328 2.99 2.99 0 0 0-.857-.953 3.014 3.014 0 0 0-3.327-.12l-.41-.244 5.643-9.526.269.158a4.544 4.544 0 0 0 3.976.331l1.725-.667c.987-.381 1.532-.406 2.508.055a4.017 4.017 0 0 0-1.018 2.675v3.979a1.92 1.92 0 0 0 1.915 1.917h.003c1.059 0 2.055-.412 2.804-1.16.437-.437.76-.957.953-1.526l11.84 7.013c.28.165.478.43.558.743.08.314.034.641-.132.92zm6.509-6.116l-1.85 1.096a1.716 1.716 0 0 1-2.347-.601l-2.828-4.774a.898.898 0 0 0-1.544.915l2.828 4.773c.053.09.11.176.17.259l-.785.46a4.54 4.54 0 0 0-.459.31l-12.19-7.22a.898.898 0 0 0-1.355.772c-.01.054.093.976-.637 1.706-.41.41-.955.635-1.536.635a.123.123 0 0 1-.123-.123v-3.978c0-1.04.716-1.917 1.683-2.162l2.98-.754c1.081-.273 1.693.304 3.312.852a4.536 4.536 0 0 0 3.431-.055l.542.914a.898.898 0 0 0 1.544-.914l-1.067-1.8a1.713 1.713 0 0 1 .601-2.348l1.85-1.096a.173.173 0 0 1 .237.061l7.603 12.834a.173.173 0 0 1-.06.238z" fill="#fff"/></svg>