<svg width="61" height="61" viewBox="0 0 61 61" fill="none" xmlns="http://www.w3.org/2000/svg"><g clip-path="url(#a)" fill="#fff"><path d="M29.545 45.84h-1.017V22.796h8.657a.894.894 0 0 0 0-1.787h-8.657v-9.674h17.253c.034 0 .061.028.061.062v9.55a.062.062 0 0 1-.061.062h-4.775a.894.894 0 1 0 0 1.787h2.926v6.749a.894.894 0 0 0 1.787 0v-6.75h.062a1.85 1.85 0 0 0 1.848-1.848v-9.55a1.85 1.85 0 0 0-1.848-1.849h-2.27L40.733 2.88A4.661 4.661 0 0 0 37.77.202a4.662 4.662 0 0 0-3.95.585l-7.709 5.137a4.697 4.697 0 0 0-1.342-.196h-1.91c-.465 0-.913.068-1.337.194L13.809.787a4.662 4.662 0 0 0-3.95-.585A4.661 4.661 0 0 0 6.897 2.88L4.118 9.548h-2.27A1.85 1.85 0 0 0 0 11.397v9.55c0 1.02.83 1.849 1.849 1.849h.061v22.982c0 1.02.83 1.849 1.849 1.849h25.786a.893.893 0 1 0 0-1.787zm-2.804 0h-5.853V11.335h5.853V45.84zm8.07-43.566a2.88 2.88 0 0 1 2.442-.361 2.88 2.88 0 0 1 1.83 1.654l2.492 5.981h-9.62l3.764-2.15a.894.894 0 0 0-.887-1.552l-5.566 3.18A4.725 4.725 0 0 0 27.874 6.9l6.938-4.625zM24.77 7.514c1.302 0 2.408.856 2.786 2.034h-7.483a2.932 2.932 0 0 1 2.787-2.033h1.91zM8.546 3.568c.334-.8 1-1.403 1.83-1.654.83-.252 1.72-.12 2.442.36L19.755 6.9a4.725 4.725 0 0 0-1.392 2.127l-5.566-3.18a.894.894 0 1 0-.886 1.551l3.764 2.151h-9.62l2.491-5.98zM3.697 45.778V22.796h12.477a.894.894 0 0 0 0-1.787H1.85a.062.062 0 0 1-.062-.062v-9.55c0-.034.028-.062.062-.062H19.1V45.84H3.759a.062.062 0 0 1-.062-.062z"/><path d="M46.736 32.472c-7.865 0-14.264 6.399-14.264 14.264C32.472 54.6 38.87 61 46.736 61 54.6 61 61 54.601 61 46.736c0-7.865-6.399-14.264-14.264-14.264zm0 26.741c-6.88 0-12.477-5.597-12.477-12.477s5.597-12.477 12.477-12.477 12.477 5.597 12.477 12.477-5.597 12.477-12.477 12.477z"/><path d="M51.834 40.374l-11.46 11.46a.894.894 0 0 0 1.263 1.264l11.46-11.46a.894.894 0 0 0-1.263-1.264zM42.916 45.72a2.807 2.807 0 0 0 2.803-2.804 2.807 2.807 0 0 0-2.803-2.804 2.807 2.807 0 0 0-2.804 2.804 2.807 2.807 0 0 0 2.804 2.803zm0-3.82a1.018 1.018 0 0 1 0 2.032 1.018 1.018 0 0 1 0-2.033zM50.556 47.752a2.807 2.807 0 0 0-2.804 2.804 2.807 2.807 0 0 0 2.804 2.803 2.807 2.807 0 0 0 2.803-2.803 2.807 2.807 0 0 0-2.803-2.804zm0 3.82a1.018 1.018 0 0 1 0-2.033 1.018 1.018 0 0 1 0 2.033z"/></g><defs><clipPath id="a"><path fill="#fff" d="M0 0h61v61H0z"/></clipPath></defs></svg>