<svg width="61" height="61" viewBox="0 0 61 61" fill="none" xmlns="http://www.w3.org/2000/svg"><path d="M22.325 18.833c.645.749.658 2.025.028 2.787l-1.33 1.605c-.644.778-.86 1.68-.593 2.476s.985 1.385 1.967 1.617l2.03.478c.961.227 1.722 1.252 1.66 2.238l-.132 2.08c-.052.83.18 1.566.653 2.07.673.717 1.775.891 2.864.434l1.923-.807c.879-.366 2.153.04 2.658.834l1.117 1.762c.536.845 1.32 1.33 2.151 1.33.849 0 1.638-.501 2.167-1.372l1.082-1.783c.49-.81 1.746-1.24 2.64-.886l1.94.767c1.09.434 2.18.244 2.84-.473.473-.515.696-1.26.627-2.098l-.173-2.078c-.082-.986.658-2.025 1.615-2.27l2.02-.518c.977-.25 1.683-.854 1.934-1.656.252-.801.018-1.698-.641-2.463l-1.361-1.579c-.645-.749-.658-2.025-.028-2.787l1.33-1.606c.644-.777.86-1.68.593-2.475-.267-.797-.985-1.386-1.968-1.618l-2.029-.477c-.961-.227-1.722-1.252-1.66-2.238l.131-2.08c.053-.83-.179-1.567-.652-2.07-.672-.718-1.774-.892-2.864-.434l-1.923.807c-.88.366-2.153-.038-2.658-.835l-1.116-1.76c-.536-.846-1.32-1.33-2.152-1.33-.848 0-1.637.5-2.166 1.371L33.767 5.58c-.492.81-1.75 1.239-2.64.886l-1.94-.768c-1.09-.432-2.18-.244-2.84.474-.475.514-.698 1.26-.628 2.098l.172 2.078c.083.986-.657 2.025-1.615 2.27l-2.02.518c-.978.25-1.683.854-1.935 1.656-.251.8-.017 1.698.642 2.463l1.362 1.579zm-.238-3.49c.054-.174.29-.33.63-.417l2.018-.518c1.84-.471 3.158-2.322 3-4.215l-.173-2.078c-.025-.312.027-.564.145-.693.026-.028.104-.112.319-.112.139 0 .305.036.479.105l1.939.769c.438.174.91.262 1.402.262 1.424 0 2.798-.749 3.501-1.91l1.082-1.782c.364-.601.8-.603 1.174-.011l1.117 1.76c.709 1.12 2.066 1.842 3.459 1.842.519 0 1.015-.098 1.476-.291l1.923-.806c.18-.077.351-.116.493-.116.205 0 .282.082.307.109.12.128.176.377.156.688l-.131 2.08c-.12 1.896 1.234 3.72 3.081 4.156l2.03.478c.34.08.579.231.637.404.058.173-.04.438-.265.708l-1.33 1.606c-1.21 1.462-1.187 3.735.052 5.174l1.361 1.578c.229.266.333.528.278.704-.054.174-.29.33-.63.417l-2.02.518c-1.838.471-3.156 2.322-2.998 4.214l.173 2.078c.025.312-.027.564-.145.693-.026.028-.103.112-.318.112-.139 0-.305-.037-.48-.106l-1.939-.768a3.775 3.775 0 0 0-1.402-.262c-1.424 0-2.798.75-3.5 1.91l-1.082 1.782c-.364.598-.8.601-1.175.011l-1.117-1.762c-.709-1.117-2.066-1.84-3.459-1.84-.519 0-1.016.098-1.476.291l-1.923.806c-.18.076-.351.116-.493.116-.205 0-.282-.082-.307-.11-.12-.127-.176-.377-.156-.687l.131-2.08c.12-1.895-1.234-3.72-3.081-4.156l-2.03-.478c-.34-.08-.58-.231-.638-.405-.058-.173.04-.437.264-.708l1.33-1.605c1.211-1.462 1.188-3.734-.05-5.174l-1.362-1.578c-.228-.266-.332-.527-.277-.702z" fill="#fff"/><path d="M37.168 30.356c5.666 0 10.276-4.61 10.276-10.277 0-5.666-4.61-10.275-10.276-10.275-5.666 0-10.277 4.609-10.277 10.275 0 5.668 4.61 10.277 10.277 10.277zm0-18.703c4.646 0 8.428 3.78 8.428 8.426 0 4.647-3.782 8.428-8.428 8.428-4.646 0-8.428-3.781-8.428-8.428 0-4.646 3.78-8.426 8.428-8.426zM59.224 39.743c-.564-.747-2.2-1.8-4.36-.435l-7.463 4.863-4.486 1.873c-.508-2.282-3.003-2.757-4.283-2.687h-8.334c-3.436-1.97-11.15-4.518-11.538-4.643-4.68-1.22-7.267 1.15-8.033 2.021l-2.02.472-.02-.104c-.108-.565-.364-.975-.762-1.218-.403-.246-.843-.3-1.58-.145l-4.506.942a.924.924 0 0 0-.716 1.091l3.314 16.064c.05.243.196.456.404.591a.932.932 0 0 0 .705.124l4.498-1.017c.84-.19 1.597-1.208 1.357-2.267l-.032-.167c1.868-.158 4.17-.227 4.87.04a.858.858 0 0 0 .108.035l11.558 2.869c1.31.268 2.377.389 3.343.389 1.678 0 3.055-.366 4.889-.964 5.235-1.708 10.578-4.537 10.803-4.657a.924.924 0 0 0 .127-.08l11.222-8.566c.146-.102 1.428-1.04 1.59-2.428.06-.508-.013-1.277-.655-1.996zM9.547 55.759c-.363.078-1.239.274-3.489.782L3.12 42.302c1.292-.27 3.521-.736 3.597-.75.063-.013.118-.025.168-.032l1.886 9.852.588 3.08c0 .005.003.01.004.014.139.721.226 1.175.232 1.199.007.028-.026.071-.048.094zm48.496-14.236c-.053.484-.624.994-.845 1.154l-11.19 8.54c-.628.33-5.668 2.94-10.444 4.497-2.693.878-4.104 1.169-7.29.52v.01c-.575-.153-2.733-.69-11.433-2.85-1.28-.448-4.259-.259-5.823-.118l-.426-2.222-1.533-8.03 2.397-.56a.942.942 0 0 0 .543-.364c.08-.111 2.018-2.717 6.239-1.614.082.026 8.198 2.706 11.333 4.588a.922.922 0 0 0 .475.131l8.64-.002c.095-.005 2.297-.118 2.456 1.439 0 .003.008.214-.07.475a1.272 1.272 0 0 0-.032.098 1.349 1.349 0 0 1-.274.46c-.337.37-.913.561-1.7.572h-11.38a.924.924 0 1 0 0 1.849h11.392c1.33-.016 2.357-.41 3.054-1.172.226-.247.394-.508.517-.765l5.544-2.314a.957.957 0 0 0 .149-.078l7.523-4.902c1.153-.728 1.743-.18 1.931.048.25.285.26.484.247.61z" fill="#fff"/><path d="M24.64 48.263h-.67a.924.924 0 1 0 0 1.849h.67a.924.924 0 1 0 0-1.85zM34.147 21.945c.012.02.034.026.046.045.055.078.12.142.2.197.028.019.052.04.083.056a.767.767 0 0 0 .339.088c.003 0 .007.003.011.003h4.625c.006 0 .013-.005.02-.005.012.002.024.005.037.005.071 0 .136-.034.205-.053.016-.006.034-.007.05-.013a.756.756 0 0 0 .423-.323l2.178-3.716a.785.785 0 0 0-.794-1.174l-2.41.362-1.326-1.507a.774.774 0 0 0-.667-.248.774.774 0 0 0-.667.248l-1.326 1.507-2.41-.362a.785.785 0 0 0-.794 1.174l2.177 3.716zm1.218-2.911a.79.79 0 0 0 .707-.259l1.095-1.244 1.095 1.244c.177.2.445.296.706.259l1.209-.181-1.12 1.91h-3.782l-1.119-1.91 1.21.18zM39.452 23.464h-4.627a.786.786 0 1 0 0 1.57h4.627a.786.786 0 1 0 0-1.57z" fill="#fff"/></svg>